<?xml version="1.0" encoding="iso-8859-1"?>
<!-- Generator: Adobe Illustrator 25.2.0, SVG Export Plug-In . SVG Version: 6.00 Build 0)  -->
<svg version="1.1" xmlns="http://www.w3.org/2000/svg" xmlns:xlink="http://www.w3.org/1999/xlink" x="0px" y="0px" 
	 viewBox="0 0 492 492" style="enable-background:new 0 0 492 492;" xml:space="preserve">
<g id="Master_Layer_2">
</g>
<g id="Layer_1">
	<g>
		<g>
			<g>
				<g>
					<g>
						<g>
							<g>
								<polygon style="fill-rule:evenodd;clip-rule:evenodd;fill:#FFBD8C;" points="390.133,290.952 362.027,307.179 
									287.229,262.421 292.852,259.349 312.568,248.578 								"/>
							</g>
							<g>
								<polygon style="fill-rule:evenodd;clip-rule:evenodd;fill:#FFBD8C;" points="269.166,272.29 344.44,317.333 
									312.568,335.734 235.002,290.952 								"/>
							</g>
							<g>
								<polygon style="fill-rule:evenodd;clip-rule:evenodd;fill:#FFBD8C;" points="312.568,335.734 312.568,425.3 
									235.002,380.518 235.002,355.584 235.002,336.848 235.002,290.952 								"/>
							</g>
							<g>
								<polygon style="fill-rule:evenodd;clip-rule:evenodd;fill:#FFBD8C;" points="390.133,290.952 390.133,380.518 
									312.568,425.3 312.568,335.734 344.44,317.333 344.442,317.333 345.637,344.885 362.992,335.734 362.027,307.179 								
									"/>
							</g>
							<g>
								<polygon style="fill-rule:evenodd;clip-rule:evenodd;fill:#FF6862;" points="362.027,307.179 362.992,335.734 
									345.637,344.885 344.442,317.333 								"/>
							</g>
							<g>
								<polygon style="fill-rule:evenodd;clip-rule:evenodd;fill:#FF6862;" points="362.027,307.179 344.442,317.333 
									344.44,317.333 269.166,272.29 287.229,262.421 								"/>
							</g>
							<g>
								<path style="fill-rule:evenodd;clip-rule:evenodd;fill:#7C87A1;" d="M260.908,122.929v12.257H153.81v-12.259v-18.641V90.833
									l23.131,0V78.418c0-5.654,4.584-10.239,10.241-10.239h40.356c5.654,0,10.239,4.584,10.239,10.239v12.415h23.131v13.452
									V122.929z"/>
							</g>
							<g>
								<path style="fill-rule:evenodd;clip-rule:evenodd;fill:#85C5FF;" d="M235.002,336.848v18.737H107.017
									c-2.556,0-4.63-2.073-4.63-4.629v-242.04c0-2.558,2.074-4.63,4.63-4.63h46.793v18.641l-31.706,0v214.013L235.002,336.848z"
									/>
							</g>
							<g>
								<path style="fill-rule:evenodd;clip-rule:evenodd;fill:#85C5FF;" d="M312.568,108.915v139.663l-19.716,10.771
									l-0.002-136.421l-31.942,0v-18.643h47.03C310.494,104.285,312.568,106.357,312.568,108.915z"/>
							</g>
							<g>
								<polygon style="fill-rule:evenodd;clip-rule:evenodd;fill:#F7F7F7;" points="292.849,122.929 292.852,259.349 
									287.229,262.421 269.166,272.29 235.002,290.952 235.002,336.848 122.104,336.939 122.104,122.926 153.81,122.926 
									153.81,135.185 260.908,135.185 260.908,122.929 								"/>
							</g>
						</g>
					</g>
				</g>
			</g>
			<g>
				<g>
					<g>
						<path style="fill-rule:evenodd;clip-rule:evenodd;fill:#333333;" d="M235.002,361.344H107.017
							c-5.729,0-10.39-4.661-10.39-10.389v-242.04c0-5.729,4.661-10.389,10.39-10.389h46.793c3.18,0,5.762,2.58,5.762,5.76
							c0,3.18-2.578,5.76-5.76,5.76h-45.665v239.779h126.854c3.18,0,5.76,2.58,5.76,5.76
							C240.762,358.764,238.185,361.344,235.002,361.344z"/>
					</g>
					<g>
						<path style="fill-rule:evenodd;clip-rule:evenodd;fill:#333333;" d="M312.568,254.338c-3.18,0-5.76-2.58-5.76-5.76V110.045
							h-45.902c-3.18,0-5.76-2.58-5.76-5.76c0-3.18,2.58-5.76,5.76-5.76h47.033c5.729,0,10.389,4.661,10.389,10.389v139.663
							C318.328,251.76,315.75,254.338,312.568,254.338L312.568,254.338z M307.938,110.045L307.938,110.045L307.938,110.045z"/>
					</g>
					<g>
						<path style="fill-rule:evenodd;clip-rule:evenodd;fill:#333333;" d="M260.908,140.945H153.81c-3.18,0-5.76-2.58-5.76-5.76
							V90.833c0-3.18,2.58-5.76,5.76-5.76h17.371V78.42c0-8.822,7.178-16.001,16.001-16.001h40.356
							c8.822,0,16.001,7.179,16.001,16.001v6.653h17.369c3.18,0,5.76,2.58,5.76,5.76v44.352
							C266.668,138.365,264.088,140.945,260.908,140.945L260.908,140.945z M159.57,129.425h95.575V96.593h-17.369
							c-3.18,0-5.76-2.58-5.76-5.76V78.42c0-2.469-2.009-4.481-4.481-4.481h-40.353c-2.469,0-4.481,2.009-4.481,4.481v12.413
							c0,3.18-2.58,5.76-5.76,5.76H159.57V129.425z"/>
					</g>
					<g>
						<path style="fill-rule:evenodd;clip-rule:evenodd;fill:#333333;" d="M122.104,342.699c-1.526,0-2.99-0.607-4.07-1.685
							c-1.08-1.08-1.69-2.546-1.69-4.075V122.926c0-3.18,2.58-5.76,5.76-5.76h31.706c3.18,0,5.76,2.58,5.76,5.76
							s-2.58,5.76-5.76,5.76h-25.946v202.488l107.133-0.086c0.002,0,0.002,0,0.005,0c3.18,0,5.758,2.575,5.76,5.755
							c0.002,3.18-2.575,5.762-5.755,5.765l-112.898,0.091C122.106,342.699,122.106,342.699,122.104,342.699z"/>
					</g>
					<g>
						<path style="fill-rule:evenodd;clip-rule:evenodd;fill:#333333;" d="M292.852,265.109c-3.18,0-5.76-2.58-5.76-5.76
							l-0.002-130.661h-26.184c-3.18,0-5.76-2.58-5.76-5.76c0-3.18,2.58-5.76,5.76-5.76h31.944c3.18,0,5.76,2.58,5.76,5.76
							l0.002,136.421C298.612,262.532,296.034,265.109,292.852,265.109z"/>
					</g>
				</g>
				<g>
					<g>
						<path style="fill-rule:evenodd;clip-rule:evenodd;fill:#333333;" d="M158.79,190.894c-0.372,0-0.746-0.036-1.118-0.11
							c-1.529-0.302-2.87-1.214-3.718-2.522l-7.858-12.151c-1.728-2.671-0.962-6.238,1.709-7.966
							c2.671-1.728,6.238-0.962,7.966,1.709l4.627,7.157l19.855-13.757c2.614-1.812,6.204-1.162,8.016,1.454
							c1.812,2.616,1.162,6.204-1.454,8.016l-24.744,17.143C161.101,190.541,159.954,190.894,158.79,190.894z"/>
					</g>
					<g>
						<path style="fill-rule:evenodd;clip-rule:evenodd;fill:#333333;" d="M158.79,248.088c-0.372,0-0.746-0.036-1.118-0.11
							c-1.529-0.302-2.87-1.212-3.718-2.522l-7.858-12.151c-1.728-2.671-0.962-6.238,1.709-7.966
							c2.671-1.728,6.238-0.962,7.966,1.709l4.627,7.157l19.855-13.757c2.614-1.812,6.204-1.162,8.016,1.454
							c1.812,2.616,1.162,6.204-1.454,8.016l-24.744,17.143C161.101,247.736,159.954,248.088,158.79,248.088z"/>
					</g>
					<g>
						<path style="fill-rule:evenodd;clip-rule:evenodd;fill:#333333;" d="M158.79,305.285c-0.372,0-0.746-0.036-1.118-0.11
							c-1.529-0.303-2.87-1.212-3.718-2.522l-7.858-12.151c-1.728-2.671-0.962-6.238,1.709-7.966s6.238-0.962,7.966,1.709
							l4.627,7.157l19.855-13.757c2.614-1.812,6.204-1.162,8.016,1.454c1.812,2.616,1.162,6.204-1.454,8.016l-24.744,17.143
							C161.101,304.932,159.954,305.285,158.79,305.285z"/>
					</g>
				</g>
				<g>
					<path style="fill-rule:evenodd;clip-rule:evenodd;fill:#333333;" d="M260.906,178.344h-50.381c-3.18,0-5.76-2.58-5.76-5.76
						s2.58-5.76,5.76-5.76h50.381c3.18,0,5.76,2.58,5.76,5.76S264.088,178.344,260.906,178.344z"/>
				</g>
				<g>
					<path style="fill-rule:evenodd;clip-rule:evenodd;fill:#333333;" d="M260.906,235.692h-50.381c-3.18,0-5.76-2.58-5.76-5.76
						s2.58-5.76,5.76-5.76h50.381c3.18,0,5.76,2.58,5.76,5.76S264.088,235.692,260.906,235.692z"/>
				</g>
				<g>
					<g>
						<path style="fill-rule:evenodd;clip-rule:evenodd;fill:#333333;" d="M312.568,431.06c-0.993,0-1.99-0.257-2.88-0.773
							l-77.566-44.781c-1.783-1.03-2.88-2.93-2.88-4.987v-89.563c0-2.107,1.15-4.044,2.998-5.055l77.566-42.374
							c1.721-0.941,3.802-0.941,5.522,0l77.566,42.374c1.848,1.01,2.998,2.947,2.998,5.055v89.563c0,2.057-1.097,3.96-2.88,4.987
							l-77.565,44.781C314.557,430.803,313.561,431.06,312.568,431.06L312.568,431.06z M240.762,377.191l71.805,41.458
							l71.806-41.458V294.37l-71.806-39.228l-71.805,39.228V377.191L240.762,377.191z M390.133,380.518L390.133,380.518
							L390.133,380.518z"/>
					</g>
					<g>
						<path style="fill-rule:evenodd;clip-rule:evenodd;fill:#333333;" d="M312.568,341.494c-0.993,0-1.99-0.257-2.88-0.771
							l-77.566-44.781c-2.755-1.591-3.698-5.112-2.107-7.867c1.591-2.755,5.112-3.698,7.867-2.109l74.685,43.118l74.686-43.118
							c2.755-1.591,6.278-0.646,7.867,2.109c1.589,2.755,0.646,6.279-2.107,7.867l-77.566,44.781
							C314.557,341.237,313.561,341.494,312.568,341.494z"/>
					</g>
					<g>
						<path style="fill-rule:evenodd;clip-rule:evenodd;fill:#333333;" d="M362.022,312.941c-1.006,0-2.026-0.264-2.952-0.818
							l-74.801-44.758c-2.729-1.635-3.619-5.17-1.985-7.901c1.634-2.729,5.169-3.619,7.901-1.985l74.801,44.758
							c2.729,1.634,3.619,5.169,1.985,7.901C365.891,311.94,363.983,312.941,362.022,312.941z"/>
					</g>
					<g>
						<path style="fill-rule:evenodd;clip-rule:evenodd;fill:#333333;" d="M344.438,323.093c-1.006,0-2.026-0.264-2.952-0.818
							l-75.276-45.043c-2.729-1.634-3.619-5.169-1.985-7.901c1.634-2.731,5.169-3.619,7.901-1.985l75.276,45.043
							c2.729,1.634,3.619,5.17,1.985,7.901C348.306,322.092,346.396,323.093,344.438,323.093z"/>
					</g>
					<g>
						<path style="fill-rule:evenodd;clip-rule:evenodd;fill:#333333;" d="M345.637,350.645c-0.991,0-1.98-0.254-2.868-0.766
							c-1.711-0.982-2.801-2.774-2.887-4.747l-1.195-27.554c-0.137-3.178,2.328-5.866,5.506-6.005
							c3.18-0.139,5.866,2.328,6.005,5.506l0.799,18.466l6.115-3.226l-0.842-24.95c-0.108-3.18,2.383-5.844,5.563-5.952
							c3.19-0.113,5.844,2.383,5.952,5.563l0.962,28.555c0.074,2.206-1.118,4.26-3.07,5.29l-17.354,9.151
							C347.483,350.424,346.559,350.645,345.637,350.645z"/>
					</g>
					<g>
						<path style="fill-rule:evenodd;clip-rule:evenodd;fill:#333333;" d="M312.568,431.06c-3.18,0-5.76-2.58-5.76-5.76v-89.565
							c0-3.18,2.58-5.76,5.76-5.76s5.76,2.58,5.76,5.76V425.3C318.328,428.479,315.75,431.06,312.568,431.06z"/>
					</g>
				</g>
			</g>
		</g>
	</g>
</g>
</svg>
