<?xml version="1.0" encoding="utf-8"?>
<!-- Generator: Adobe Illustrator 28.1.0, SVG Export Plug-In . SVG Version: 6.00 Build 0)  -->
<svg version="1.1" id="logos" xmlns="http://www.w3.org/2000/svg" xmlns:xlink="http://www.w3.org/1999/xlink" x="0px" y="0px"
	 viewBox="0 0 607.6 219.1" style="enable-background:new 0 0 607.6 219.1;" xml:space="preserve">
<style type="text/css">
	.st0{fill:#000033;}
	.st1{fill:#94949B;}
	.st2{fill:none;stroke:url(#SVGID_1_);stroke-miterlimit:10;}
	.st3{fill:none;stroke:url(#SVGID_00000099625417973252259190000004465167067746047623_);stroke-miterlimit:10;}
	.st4{fill:url(#SVGID_00000151519542463728130200000001936550854918071697_);}
	.st5{fill:url(#SVGID_00000163751140789958890990000000300751821790568877_);}
	.st6{fill:url(#SVGID_00000081648870609881468350000010048919662104741558_);}
</style>
<g id="New_Symbol_1">
	<g>
		<g>
			<g>
				<path class="st0" d="M157.7,61.4l25.1,64.1h-10.7l-5.8-14.9l-0.1-0.2h-27.6l-5.6,15.1h-10.7l24-64.1
					C146.3,61.4,157.7,61.4,157.7,61.4z M162.4,100.4l-9.9-25.2l-0.4-1l-9.6,25.7l-0.2,0.6H162.4z"/>
				<path class="st0" d="M273,124.9V77.4h-10.1v33.7l-0.1,0.3c-0.1,0.2-3,5.4-9.3,5.4c-7.3,0-10.5-5.3-10.5-10.5v-29h-10v32.6
					c0,8.9,7.2,16.1,16.1,16.1c7,0,11.6-3.5,13.8-6.8v5.6H273z"/>
				<path class="st0" d="M209,76.5c9.2,0,14.8,3.9,18.1,8.4l-6.8,6.3c-2.6-3.7-6.3-5.6-10.9-5.6c-8.6,0-14.3,6.5-14.3,15.7
					s5.7,15.8,14.3,15.8c4.6,0,8.2-2,10.9-5.6l6.8,6.3c-3.3,4.5-8.9,8.4-18.1,8.4c-14.4,0-24.5-10.5-24.5-24.9S194.6,76.5,209,76.5
					L209,76.5z"/>
				<rect x="452.5" y="77.5" class="st0" width="9.8" height="47.3"/>
				<path class="st0" d="M451.5,64v-1.5c0-3,1.8-5.2,5.9-5.2s5.8,2.2,5.8,5.2V64c0,3-1.7,5.2-5.8,5.2S451.5,67,451.5,64z"/>
				<path class="st0" d="M433.3,65.6h-9.8v11.9h-6.4v8.7h6.2l0.2,29.9c0,4.8,3.9,8.8,8.8,8.8h9.1v-9.4h-8.1V86.2h9.6v-8.7h-9.6
					L433.3,65.6L433.3,65.6z"/>
				<path class="st0" d="M398.2,77.6v5.7c-2.6-3.5-8.2-7-15.2-7c-13.3,0-23,10.5-23,24.9c0,12.5,7.9,25.2,22.9,25.2
					c10.6,0,15.3-7.1,15.3-7.1v5.6h9.9V77.5L398.2,77.6L398.2,77.6z M384.5,117.6c-8.2,0-14.2-6.8-14.2-16.2s6-16.3,14.2-16.3
					c7.2,0,14.5,5.1,14.5,16.4C398.9,109.2,394.4,117.6,384.5,117.6L384.5,117.6z"/>
				<path class="st0" d="M555.8,77.6v5.7c-2.7-3.5-8.2-7-15.2-7c-13.3,0-23,10.5-23,24.9c0,12.5,7.9,25.2,22.9,25.2
					c10.6,0,15.3-7.1,15.3-7.1v5.6h9.9V77.5L555.8,77.6L555.8,77.6z M542.1,117.6c-8.2,0-14.2-6.8-14.2-16.2s6-16.3,14.2-16.3
					c7.2,0,14.5,5.1,14.5,16.4C556.5,109.2,552,117.6,542.1,117.6L542.1,117.6z"/>
				<path class="st0" d="M494.9,76.5c9.2,0,14.8,3.9,18.1,8.4l-6.8,6.3c-2.6-3.7-6.3-5.6-10.9-5.6c-8.6,0-14.3,6.5-14.3,15.7
					s5.7,15.8,14.3,15.8c4.6,0,8.2-2,10.9-5.6l6.8,6.3c-3.3,4.5-8.9,8.4-18.1,8.4c-14.4,0-24.5-10.5-24.5-24.9
					S480.5,76.5,494.9,76.5L494.9,76.5z"/>
				<path class="st0" d="M336.8,76.1c-7.3,0-13.1,4.7-15.5,9c-2.6-5.3-8.1-9-14.5-9c-7,0-11.6,3.5-13.8,6.8v-5.6h-10.1v47.5H293
					V91.1l0.1-0.3c0.1-0.2,3-5.4,9.3-5.4c7.3,0,10.5,5.3,10.5,10.5v29h10V92.2c0-0.2,0-0.4,0-0.6l0.1-0.5l0.1-0.3
					c0.1-0.2,3-5.4,9.3-5.4c7.3,0,10.5,5.3,10.5,10.5v29h10V92.2C352.9,83.4,345.7,76.1,336.8,76.1L336.8,76.1z"/>
			</g>
		</g>
		<g>
			<path class="st1" d="M325.6,176.8v-21.4h-7.7v-3.3h19v3.3h-7.6v21.4H325.6L325.6,176.8z"/>
			<path class="st1" d="M368.9,158.5c5.4,0,8.7,4.2,8.7,9.7v0.8h-14.1c0.3,3,2.5,5.6,6.1,5.6c1.9,0,4-0.7,5.3-2.1l1.5,2.2
				c-1.8,1.7-4.3,2.7-7.2,2.7c-5.3,0-9.3-3.8-9.3-9.4C360,162.7,363.7,158.5,368.9,158.5L368.9,158.5z M363.5,166.6h10.9
				c-0.1-2.4-1.7-5.3-5.4-5.3S363.6,164.1,363.5,166.6z"/>
			<path class="st1" d="M391.3,164.5c0-7.6,5.6-12.8,12.7-12.8c4.9,0,7.9,2.3,9.8,5.2l-3.1,1.7c-1.3-2.1-3.7-3.6-6.7-3.6
				c-5,0-8.9,3.9-8.9,9.5s3.9,9.5,8.9,9.5c2.9,0,5.4-1.5,6.7-3.6l3.1,1.7c-2,2.9-5,5.2-9.8,5.2C396.9,177.3,391.3,172.1,391.3,164.5
				L391.3,164.5z"/>
			<path class="st1" d="M417.9,176.8v-24.7h3.3v24.7H417.9z"/>
			<path class="st1" d="M425.6,167.9c0-5.1,3.5-9.4,9-9.4s9,4.2,9,9.4s-3.4,9.4-9,9.4S425.6,173.1,425.6,167.9z M440.1,167.9
				c0-3.4-2-6.4-5.5-6.4s-5.5,3-5.5,6.4s2,6.4,5.5,6.4S440.1,171.3,440.1,167.9z"/>
			<path class="st1" d="M459.5,176.8v-2.4c0,0-1.9,2.9-5.9,2.9c-3.4,0-6.2-2.8-6.2-6.2V159h3.3v11.5c0,3,2.1,3.9,4.4,3.9
				c2.1,0,3.4-1.2,4.4-2.5V159h3.3v17.9L459.5,176.8L459.5,176.8z"/>
			<path class="st1" d="M497.5,176.8v-24.7h17.5v4.5h-12.2v5.4h12v4.5h-12v5.7h12.2v4.6L497.5,176.8L497.5,176.8z"/>
			<path class="st1" d="M534.7,176.8l-4.8-8.9H526v8.9h-5.3v-24.7h11.5c5.2,0,8.3,3.4,8.3,8s-2.7,6.7-5.4,7.3l5.5,9.4L534.7,176.8
				L534.7,176.8z M531.5,156.7H526v6.8h5.5c2.1,0,3.7-1.3,3.7-3.4S533.6,156.7,531.5,156.7L531.5,156.7z"/>
			<path class="st1" d="M545.9,176.8v-24.7h11.5c5.4,0,8.3,3.6,8.3,8s-3,7.9-8.3,7.9h-6.3v8.9L545.9,176.8L545.9,176.8z
				 M556.8,156.7h-5.6v6.8h5.6c2.1,0,3.6-1.3,3.6-3.4S558.9,156.7,556.8,156.7L556.8,156.7z"/>
			<path class="st1" d="M344.4,152.1v9.3c0,0,1.9-2.9,5.9-2.9c3.4,0,6.2,2.8,6.2,6.2v12.1h-3.3v-11.5c0-3-2.1-3.9-4.4-3.9
				c-2.1,0-3.4,1.2-4.4,2.5v12.9H341v-24.7L344.4,152.1L344.4,152.1z"/>
			<path class="st1" d="M480.5,152.1v9.4c-1.4-1.9-3.5-3-5.9-3c-4.7,0-8,3.7-8,9.4s3.3,9.4,8,9.4c2.4,0,4.5-1.2,5.9-3v2.6h3.3v-24.7
				L480.5,152.1L480.5,152.1z M475.5,174.1c-3.3,0-5.2-2.8-5.2-6.2s2.1-6.2,5.2-6.2s5.2,2.8,5.2,6.2S478.7,174.1,475.5,174.1z"/>
		</g>
	</g>
</g>
<g>
	<linearGradient id="SVGID_1_" gradientUnits="userSpaceOnUse" x1="35.9346" y1="76.1569" x2="35.9875" y2="76.1541">
		<stop  offset="0" style="stop-color:#00649C"/>
		<stop  offset="0.11" style="stop-color:#0875AC"/>
		<stop  offset="0.37" style="stop-color:#1A9ACF"/>
		<stop  offset="0.62" style="stop-color:#28B5E9"/>
		<stop  offset="0.83" style="stop-color:#30C6F9"/>
		<stop  offset="1" style="stop-color:#33CCFF"/>
	</linearGradient>
	<path class="st2" d="M36,76.2L36,76.2"/>
	
		<linearGradient id="SVGID_00000092420757934375324430000013257267787140802702_" gradientUnits="userSpaceOnUse" x1="42.6612" y1="93.9678" x2="42.6612" y2="93.9678">
		<stop  offset="0" style="stop-color:#00649C"/>
		<stop  offset="0.11" style="stop-color:#0875AC"/>
		<stop  offset="0.37" style="stop-color:#1A9ACF"/>
		<stop  offset="0.62" style="stop-color:#28B5E9"/>
		<stop  offset="0.83" style="stop-color:#30C6F9"/>
		<stop  offset="1" style="stop-color:#33CCFF"/>
	</linearGradient>
	<path style="fill:none;stroke:url(#SVGID_00000092420757934375324430000013257267787140802702_);stroke-miterlimit:10;" d="
		M42.7,94"/>
	
		<linearGradient id="SVGID_00000060012198744576007040000018369882949668820647_" gradientUnits="userSpaceOnUse" x1="50.2335" y1="117.2401" x2="92.1851" y2="91.9305">
		<stop  offset="0" style="stop-color:#00649C"/>
		<stop  offset="0.11" style="stop-color:#0875AC"/>
		<stop  offset="0.37" style="stop-color:#1A9ACF"/>
		<stop  offset="0.62" style="stop-color:#28B5E9"/>
		<stop  offset="0.83" style="stop-color:#30C6F9"/>
		<stop  offset="1" style="stop-color:#33CCFF"/>
	</linearGradient>
	<path style="fill:url(#SVGID_00000060012198744576007040000018369882949668820647_);" d="M98.9,97.3v28.2H70.7
		c-7.8,0-14.8-3.2-19.9-8.3s-8.3-12.2-8.3-19.9c0-1.1,0.1-2.2,0.2-3.3c5.2,6.5,13.1,10.6,22,10.6h13.3V91.2c0-8.9-4.1-16.8-10.6-22
		c1-0.1,2.1-0.2,3.2-0.2C86.2,69.1,98.9,81.7,98.9,97.3z"/>
	
		<linearGradient id="SVGID_00000072239703313071717420000001106646979139311265_" gradientUnits="userSpaceOnUse" x1="59.8147" y1="43.2772" x2="40.7785" y2="123.2291">
		<stop  offset="0" style="stop-color:#00649C"/>
		<stop  offset="0.11" style="stop-color:#0875AC"/>
		<stop  offset="0.37" style="stop-color:#1A9ACF"/>
		<stop  offset="0.62" style="stop-color:#28B5E9"/>
		<stop  offset="0.83" style="stop-color:#30C6F9"/>
		<stop  offset="1" style="stop-color:#33CCFF"/>
	</linearGradient>
	<path style="fill:url(#SVGID_00000072239703313071717420000001106646979139311265_);" d="M50.7,117.2c5.1,5.1,12.2,8.3,19.9,8.3
		H59.6c-10.8,0-20.7-4.4-27.8-11.5c-7.1-7.1-11.5-16.9-11.5-27.8c0-21.7,17.6-39.3,39.3-39.3c6.4,0,12.5,1.6,17.9,4.3
		c-3.8-1.9-8.3-3-12.8-3c-7.8,0-14.8,3.2-19.9,8.3c-5.1,5.1-8.3,12.2-8.3,19.9c0,3.3,0.6,6.5,1.6,9.5c1.1,3,2.6,5.7,4.5,8.1l0,0
		c-0.1,1.1-0.2,2.2-0.2,3.3C42.5,105.1,45.6,112.1,50.7,117.2z"/>
	
		<linearGradient id="SVGID_00000085210587199570446450000013139563075249550735_" gradientUnits="userSpaceOnUse" x1="98.0386" y1="85.7231" x2="39.5456" y2="65.3025">
		<stop  offset="0" style="stop-color:#00649C"/>
		<stop  offset="0.11" style="stop-color:#0875AC"/>
		<stop  offset="0.37" style="stop-color:#1A9ACF"/>
		<stop  offset="0.62" style="stop-color:#28B5E9"/>
		<stop  offset="0.83" style="stop-color:#30C6F9"/>
		<stop  offset="1" style="stop-color:#33CCFF"/>
	</linearGradient>
	<path style="fill:url(#SVGID_00000085210587199570446450000013139563075249550735_);" d="M98.9,86.2v11.1
		c0-15.6-12.6-28.2-28.2-28.2c-14.5,0-26.4,10.9-28,24.9l0,0c-1.9-2.4-3.5-5.1-4.5-8.1c-1.1-3-1.6-6.1-1.6-9.5
		c0-7.8,3.2-14.8,8.3-19.9c5.1-5.1,12.2-8.3,19.9-8.3c4.5,0,8.9,1.1,12.8,3c0,0,0.1,0,0.1,0C90.2,57.7,98.9,71,98.9,86.2z"/>
</g>
</svg>
