<?xml version="1.0" encoding="utf-8"?>
<!-- Generator: Adobe Illustrator 24.0.0, SVG Export Plug-In . SVG Version: 6.00 Build 0)  -->
<svg version="1.1" xmlns="http://www.w3.org/2000/svg" xmlns:xlink="http://www.w3.org/1999/xlink" x="0px" y="0px"
	 viewBox="0 0 256 256" enable-background="new 0 0 256 256" xml:space="preserve">
<g id="Layer_1">
</g>
<g id="Layer_2">
</g>
<g id="Layer_3">
</g>
<g id="Layer_4">
</g>
<g id="Layer_5">
</g>
<g id="Layer_6">
</g>
<g id="Layer_7">
</g>
<g id="Layer_8">
</g>
<g id="Layer_9">
</g>
<g id="Layer_10">
</g>
<g id="Layer_11">
</g>
<g id="Layer_12">
</g>
<g id="Layer_13">
</g>
<g id="Layer_14">
</g>
<g id="Layer_15">
</g>
<g id="Layer_16">
</g>
<g id="Layer_17">
</g>
<g id="Layer_18">
</g>
<g id="Layer_19">
</g>
<g id="Layer_20">
</g>
<g id="Layer_21">
</g>
<g id="Layer_22">
</g>
<g id="Layer_23">
</g>
<g id="Layer_24">
</g>
<g id="Layer_25">
</g>
<g id="Layer_26">
</g>
<g id="Layer_27">
</g>
<g id="Layer_28">
</g>
<g id="Layer_29">
</g>
<g id="Layer_30">
</g>
<g id="Layer_31">
</g>
<g id="Layer_32">
</g>
<g id="Layer_33">
</g>
<g id="Layer_34">
</g>
<g id="Layer_35">
</g>
<g id="Layer_36">
</g>
<g id="Layer_37">
</g>
<g id="Layer_38">
</g>
<g id="Layer_39">
</g>
<g id="Layer_40">
</g>
<g id="Layer_41">
</g>
<g id="Layer_42">
</g>
<g id="Layer_43">
</g>
<g id="Layer_44">
</g>
<g id="Layer_45">
</g>
<g id="Layer_46">
</g>
<g id="Layer_47">
</g>
<g id="Layer_48">
</g>
<g id="Layer_49">
</g>
<g id="Layer_50">
</g>
<g id="Layer_51">
</g>
<g id="Layer_52">
</g>
<g id="Layer_53">
</g>
<g id="Layer_54">
</g>
<g id="Layer_55">
</g>
<g id="Layer_56">
</g>
<g id="Layer_57">
</g>
<g id="Layer_58">
</g>
<g id="Layer_59">
</g>
<g id="Layer_60">
</g>
<g id="Layer_61">
</g>
<g id="Layer_62">
</g>
<g id="Layer_63">
</g>
<g id="Layer_64">
</g>
<g id="Layer_65">
</g>
<g id="Layer_66">
</g>
<g id="Layer_67">
</g>
<g id="Layer_68">
</g>
<g id="Layer_69">
</g>
<g id="Layer_70">
</g>
<g id="Layer_71">
</g>
<g id="Layer_72">
</g>
<g id="Layer_73">
	<g>
		<g>
			<circle fill="#70D6F9" cx="42.605" cy="56.243" r="33.5"/>
		</g>
		<g>
			<g>
				<path fill="#DAE6F1" d="M57.25,54.142L43.897,67.495c-1.975,1.975-5.176,1.975-7.151,0l-8.785-8.785
					c-1.975-1.975-1.975-5.176,0-7.151s5.176-1.975,7.151,0l5.21,5.21l9.778-9.778c1.975-1.975,5.176-1.975,7.151,0
					C59.225,48.965,59.225,52.167,57.25,54.142z"/>
			</g>
		</g>
		<g>
			<circle fill="#FC657E" cx="213.395" cy="56.243" r="33.5"/>
		</g>
		<g>
			<path fill="#DAE6F1" d="M218.655,43.831l-5.261,5.261l-5.26-5.26c-2.091-2.091-5.557-1.968-7.486,0.368
				c-1.682,2.036-1.379,5.069,0.488,6.936l5.107,5.107l-5.26,5.26c-2.091,2.091-1.968,5.557,0.368,7.485
				c2.036,1.681,5.069,1.379,6.937-0.488l5.107-5.107l5.26,5.26c1.975,1.975,5.176,1.975,7.151,0s1.975-5.176,0-7.151l-5.26-5.26
				l5.261-5.261c1.975-1.975,1.975-5.176,0-7.151C223.831,41.857,220.63,41.857,218.655,43.831z"/>
		</g>
		<g>
			<path fill="#87D147" d="M59.013,117.2c-3.1-0.6-5.6-3-6.2-6.1c0-0.1-0.3-0.1-0.3,0c-0.6,3.1-3.1,5.5-6.2,6.1
				c-0.1,0-0.1,0.2,0,0.3c3.1,0.6,5.6,3,6.2,6.1c0,0.1,0.3,0.1,0.3,0c0.6-3.1,3.1-5.5,6.2-6.1
				C59.113,117.4,59.113,117.2,59.013,117.2z"/>
		</g>
		<g>
			<path fill="#70D6F9" d="M109.013,22.5h2.3v2.3c0,1.8,1.4,3.2,3.2,3.2c1.7,0,3.2-1.4,3.2-3.1v-0.1v-2.3h2.3c1.8,0,3.2-1.4,3.2-3.2
				c0-1.7-1.4-3.2-3.1-3.2h-0.1h-2.3v-2.3c0-1.8-1.4-3.2-3.2-3.2c-1.7,0-3.2,1.4-3.2,3.1v0.1v2.3h-2.3c-1.8,0-3.2,1.4-3.2,3.2
				C105.713,21,107.113,22.5,109.013,22.5C108.913,22.5,108.913,22.5,109.013,22.5z"/>
		</g>
		<g>
			<circle fill="#FC657E" cx="193.413" cy="252.6" r="3.4"/>
		</g>
		<g>
			<circle fill="#F5C84C" cx="161.413" cy="3.4" r="3.4"/>
		</g>
		<g>
			<path fill="#F5C84C" d="M208.813,199.2c4.5-0.8,8-4.3,8.9-8.7c0-0.2,0.4-0.2,0.4,0c0.9,4.4,4.4,7.9,8.9,8.7c0.2,0,0.2,0.3,0,0.4
				c-4.5,0.8-8,4.3-8.9,8.7c0,0.2-0.4,0.2-0.4,0c-0.9-4.4-4.4-7.9-8.9-8.7C208.613,199.5,208.613,199.2,208.813,199.2z"/>
		</g>
		<g>
			<path fill="#6CADEF" d="M171.794,136.72H84.206c-4.13,0-7.509,3.379-7.509,7.509v85.762c0,4.13,3.379,7.509,7.509,7.509h87.587
				c4.13,0,7.509-3.379,7.509-7.509v-85.762C179.302,140.099,175.923,136.72,171.794,136.72z"/>
		</g>
		<g>
			<path d="M171.794,240H84.207c-5.519,0-10.009-4.49-10.009-10.009v-85.762c0-5.52,4.49-10.01,10.009-10.01h87.587
				c5.519,0,10.009,4.49,10.009,10.01v85.762C181.803,235.51,177.312,240,171.794,240z M84.207,139.22
				c-2.762,0-5.009,2.247-5.009,5.01v85.762c0,2.762,2.247,5.009,5.009,5.009h87.587c2.762,0,5.009-2.247,5.009-5.009v-85.762
				c0-2.763-2.247-5.01-5.009-5.01H84.207z"/>
		</g>
		<g>
			<path d="M164.904,151.817h-1.958c-1.381,0-2.5-1.119-2.5-2.5s1.119-2.5,2.5-2.5h1.958c1.381,0,2.5,1.119,2.5,2.5
				S166.285,151.817,164.904,151.817z"/>
		</g>
		<g>
			<path d="M164.904,177.013h-1.958c-1.381,0-2.5-1.119-2.5-2.5s1.119-2.5,2.5-2.5h1.958c1.381,0,2.5,1.119,2.5,2.5
				S166.285,177.013,164.904,177.013z"/>
		</g>
		<g>
			<path d="M164.904,202.208h-1.958c-1.381,0-2.5-1.119-2.5-2.5s1.119-2.5,2.5-2.5h1.958c1.381,0,2.5,1.119,2.5,2.5
				S166.285,202.208,164.904,202.208z"/>
		</g>
		<g>
			<path d="M179.031,164.415H76.968c-1.381,0-2.5-1.119-2.5-2.5s1.119-2.5,2.5-2.5h102.063c1.381,0,2.5,1.119,2.5,2.5
				S180.412,164.415,179.031,164.415z"/>
		</g>
		<g>
			<path d="M179.031,189.61H76.968c-1.381,0-2.5-1.119-2.5-2.5s1.119-2.5,2.5-2.5h102.063c1.381,0,2.5,1.119,2.5,2.5
				S180.412,189.61,179.031,189.61z"/>
		</g>
		<g>
			<path d="M179.031,214.805H76.968c-1.381,0-2.5-1.119-2.5-2.5s1.119-2.5,2.5-2.5h102.063c1.381,0,2.5,1.119,2.5,2.5
				S180.412,214.805,179.031,214.805z"/>
		</g>
		<g>
			<path d="M164.904,227.402h-1.958c-1.381,0-2.5-1.119-2.5-2.5s1.119-2.5,2.5-2.5h1.958c1.381,0,2.5,1.119,2.5,2.5
				S166.285,227.402,164.904,227.402z"/>
		</g>
		<g>
			<path d="M152.047,151.817h-1.958c-1.381,0-2.5-1.119-2.5-2.5s1.119-2.5,2.5-2.5h1.958c1.381,0,2.5,1.119,2.5,2.5
				S153.428,151.817,152.047,151.817z"/>
		</g>
		<g>
			<path d="M152.047,177.013h-1.958c-1.381,0-2.5-1.119-2.5-2.5s1.119-2.5,2.5-2.5h1.958c1.381,0,2.5,1.119,2.5,2.5
				S153.428,177.013,152.047,177.013z"/>
		</g>
		<g>
			<path d="M152.047,202.208h-1.958c-1.381,0-2.5-1.119-2.5-2.5s1.119-2.5,2.5-2.5h1.958c1.381,0,2.5,1.119,2.5,2.5
				S153.428,202.208,152.047,202.208z"/>
		</g>
		<g>
			<path d="M152.047,227.402h-1.958c-1.381,0-2.5-1.119-2.5-2.5s1.119-2.5,2.5-2.5h1.958c1.381,0,2.5,1.119,2.5,2.5
				S153.428,227.402,152.047,227.402z"/>
		</g>
		<g>
			<path d="M42.605,92.243c-19.851,0-36-16.149-36-36s16.149-36,36-36s36,16.149,36,36S62.456,92.243,42.605,92.243z M42.605,25.243
				c-17.093,0-31,13.906-31,31s13.907,31,31,31s31-13.906,31-31S59.699,25.243,42.605,25.243z"/>
		</g>
		<g>
			<g>
				<path d="M40.321,71.473c-1.935,0-3.87-0.736-5.343-2.21l-8.785-8.785c-2.946-2.946-2.946-7.739,0-10.686
					c1.427-1.428,3.325-2.214,5.343-2.214s3.916,0.786,5.343,2.214l3.442,3.441l8.01-8.011c2.946-2.945,7.74-2.944,10.686-0.001
					c2.947,2.947,2.947,7.741,0,10.688L45.664,69.263C44.191,70.736,42.256,71.473,40.321,71.473z M31.536,52.578
					c-0.683,0-1.325,0.267-1.808,0.749c-0.482,0.483-0.749,1.125-0.749,1.808s0.266,1.324,0.749,1.808l8.785,8.785
					c0.966,0.964,2.65,0.966,3.616,0l13.354-13.354c0.997-0.997,0.997-2.619,0-3.616c-0.997-0.996-2.618-0.997-3.616,0.001
					l-9.777,9.777c-0.976,0.977-2.559,0.977-3.535,0l-5.21-5.209C32.861,52.845,32.219,52.578,31.536,52.578z"/>
			</g>
		</g>
		<g>
			<path d="M213.395,92.243c-19.851,0-36-16.149-36-36s16.149-36,36-36s36,16.149,36,36S233.245,92.243,213.395,92.243z
				 M213.395,25.243c-17.094,0-31,13.906-31,31s13.906,31,31,31s31-13.906,31-31S230.488,25.243,213.395,25.243z"/>
		</g>
		<g>
			<path d="M222.23,72.632c-1.935,0-3.87-0.736-5.343-2.21l-3.493-3.493l-3.339,3.339c-2.81,2.813-7.332,3.098-10.296,0.649
				c-1.646-1.359-2.647-3.355-2.749-5.477c-0.101-2.124,0.702-4.203,2.205-5.705l3.492-3.492l-3.339-3.34
				c-2.811-2.811-3.095-7.332-0.648-10.295c1.358-1.646,3.354-2.648,5.477-2.749c2.112-0.104,4.202,0.702,5.705,2.205l3.492,3.492
				l3.493-3.493c2.945-2.947,7.74-2.947,10.686,0c2.946,2.946,2.946,7.74,0,10.687l-3.492,3.493l3.492,3.492
				c2.946,2.946,2.946,7.74,0,10.687C226.101,71.896,224.165,72.632,222.23,72.632z M213.395,60.894c0.64,0,1.279,0.244,1.768,0.732
				l5.261,5.261c0.967,0.965,2.648,0.965,3.615,0c0.482-0.483,0.749-1.125,0.749-1.808c0-0.684-0.266-1.325-0.749-1.809l-5.26-5.26
				c-0.977-0.976-0.977-2.559,0-3.535l5.26-5.261c0.482-0.483,0.749-1.125,0.749-1.808c0-0.684-0.266-1.325-0.749-1.809
				c-0.967-0.965-2.648-0.965-3.615,0l-5.261,5.261c-0.977,0.977-2.559,0.977-3.535,0l-5.261-5.26
				c-0.518-0.516-1.226-0.782-1.931-0.746c-0.729,0.035-1.389,0.368-1.859,0.938c-0.824,0.997-0.68,2.568,0.328,3.576l5.107,5.107
				c0.469,0.469,0.732,1.104,0.732,1.768s-0.264,1.299-0.732,1.768l-5.261,5.26c-0.516,0.516-0.78,1.202-0.746,1.932
				c0.035,0.729,0.368,1.389,0.938,1.859c0.998,0.823,2.569,0.679,3.576-0.329l5.107-5.106
				C212.115,61.138,212.755,60.894,213.395,60.894z"/>
		</g>
		<g>
			<g>
				<path d="M160.918,66.707c-0.64,0-1.279-0.244-1.768-0.732c-0.977-0.977-0.977-2.56,0-3.535l6.396-6.396l-6.396-6.396
					c-0.977-0.976-0.977-2.559,0-3.535s2.559-0.977,3.535,0l8.164,8.163c0.469,0.469,0.732,1.104,0.732,1.768
					s-0.264,1.299-0.732,1.768l-8.164,8.163C162.197,66.463,161.558,66.707,160.918,66.707z"/>
			</g>
		</g>
		<g>
			<g>
				<path d="M95.082,66.707c-0.64,0-1.28-0.244-1.768-0.732l-8.163-8.163c-0.977-0.977-0.977-2.559,0-3.535l8.163-8.163
					c0.976-0.977,2.56-0.977,3.535,0c0.977,0.977,0.977,2.559,0,3.535l-6.395,6.396l6.395,6.396c0.977,0.977,0.977,2.559,0,3.535
					C96.361,66.463,95.721,66.707,95.082,66.707z"/>
			</g>
		</g>
		<g>
			<path d="M118,128c-1.381,0-2.5-1.119-2.5-2.5V58.544H92.417c-1.381,0-2.5-1.119-2.5-2.5s1.119-2.5,2.5-2.5H118
				c1.381,0,2.5,1.119,2.5,2.5V125.5C120.5,126.881,119.381,128,118,128z"/>
		</g>
		<g>
			<path d="M138,128c-1.381,0-2.5-1.119-2.5-2.5V56.044c0-1.381,1.119-2.5,2.5-2.5h25.583c1.381,0,2.5,1.119,2.5,2.5
				s-1.119,2.5-2.5,2.5H140.5V125.5C140.5,126.881,139.381,128,138,128z"/>
		</g>
	</g>
</g>
<g id="Layer_74">
</g>
<g id="Layer_75">
</g>
</svg>
