<?xml version="1.0" encoding="utf-8"?>
<!-- Generator: Adobe Illustrator 19.2.1, SVG Export Plug-In . SVG Version: 6.00 Build 0)  -->
<svg version="1.1" id="layer" xmlns="http://www.w3.org/2000/svg" xmlns:xlink="http://www.w3.org/1999/xlink" x="0px" y="0px"
	 viewBox="0 0 652 652" style="enable-background:new 0 0 652 652;" xml:space="preserve">
<style type="text/css">
	.st0{fill:#8427E2;}
	.st1{clip-path:url(#SVGID_2_);fill:url(#SVGID_3_);}
</style>
<path class="st0" d="M528.3,356.9c2,0,2.8,0.8,3.5,3.3c4,13.2,16.2,20.2,30.3,20.2c13.9,0,24.3-6.6,24.3-17.2
	c0-9.4-6.6-15.9-22.8-20.7l-18.2-5.3c-27.1-7.8-44.8-24.8-44.8-50.8c0-31.6,23-50.6,57.4-50.6c34.4,0,55.9,23,59.4,47.3
	c0.3,2.5-1.5,4.8-4.3,4.8h-26.8c-2.3,0-3.3-0.8-4-2.8c-4.8-12.6-14.9-16.9-24.3-16.9c-12.4,0-22.2,5.8-22.2,15.9
	c0,10.6,7.3,16.4,21.5,20.5l20,5.6c27.8,7.8,44.2,25.3,44.2,51.8c0,29.1-23.5,50.8-59.4,50.8c-38.7,0-61.7-24.8-65.5-51.1
	c-0.3-2.5,1.8-4.8,4.3-4.8H528.3z M392,238.6h95.6c2.3,0,4.3,2,4.3,4.3v24.8c0,2.3-2,4.3-4.3,4.3h-65v35.4h49.8c2.5,0,4.3,2,4.3,4.3
	v24.8c0,2.3-1.8,4.3-4.3,4.3h-49.8v65c0,2.3-2,4.3-4.3,4.3H392c-2.5,0-4.3-2-4.3-4.3V242.9C387.7,240.6,389.5,238.6,392,238.6
	 M339.2,238.6h26.3c2.3,0,4.3,2,4.3,4.3v162.8c0,2.3-2,4.3-4.3,4.3h-26.3c-2.5,0-4.3-2-4.3-4.3V242.9
	C334.9,240.6,336.6,238.6,339.2,238.6"/>
<g>
	<defs>
		<path id="SVGID_1_" d="M225.6,375c-0.6,0.7-0.5,1.7,0.1,2.4l30.2,35.6c2.5,3,7.5,2.5,10.2-0.4c2.7-2.9,2.9-7.8-0.3-10.2L228,374.9
			c-0.4-0.3-0.8-0.4-1.2-0.4C226.4,374.5,226,374.6,225.6,375 M199.8,371.9c-0.9,0.3-1.4,1.3-1.1,2.2l16.1,66.8
			c0.9,3.9,5.4,5.9,9.2,4.7c3.8-1.3,6.2-5.5,4.7-9.2l-26.6-63.3c-0.3-0.7-1-1.2-1.7-1.2C200.2,371.8,200,371.9,199.8,371.9
			 M256.6,367c-0.2,0.9,0.3,1.7,1.2,2.1l23.8,10.9c3,1.4,6.5-1.1,7.3-4.3c0.8-3.2-0.9-7-4.1-7.4l-26-2.6c-0.1,0-0.2,0-0.3,0
			C257.6,365.8,256.9,366.2,256.6,367 M214.4,357.9c-0.5,0.8-0.1,1.8,0.6,2.3l55.7,36.5c3,1.9,7.1,0.6,8.8-2.5
			c1.7-3.1,0.7-7.3-2.5-8.9l-60.4-28.1c-0.3-0.1-0.5-0.2-0.8-0.2C215.3,357,214.7,357.3,214.4,357.9 M176.8,356.2l-26.5,94.2
			c-1.3,4.8,2.1,9.5,6.9,10.5c4.8,1,9.9-2,10.6-6.9l13.3-96.9c0.2-1.2-0.5-2.3-1.7-2.6c-0.2,0-0.3,0-0.4,0
			C178,354.5,177.1,355.2,176.8,356.2 M198.5,350.8c-0.8,0.5-1.1,1.6-0.6,2.5l39.6,74.7c1.9,3.5,6.6,4.5,10.1,2.3
			c3.4-2.1,4.7-6.8,2.4-10.1L201,351.4c-0.4-0.5-1-0.8-1.5-0.8C199.1,350.6,198.8,350.7,198.5,350.8 M289.5,350.1l-55.3,4
			c-0.9,0.1-1.7,0.8-1.7,1.7c0,0.9,0.7,1.6,1.7,1.7l55.2,4.5c3.3,0.3,5.9-2.6,6-5.9c0-3.2-2.4-6-5.5-6
			C289.8,350.1,289.7,350.1,289.5,350.1 M188.2,337.2c-1.1,0.1-1.8,1-1.8,2.1l-0.3,109.9c0,4.5,4,7.8,8.4,7.6c4.4-0.2,8.1-4,7.6-8.4
			L190.2,339c-0.1-1-0.9-1.8-1.9-1.8C188.3,337.2,188.2,337.2,188.2,337.2 M292.5,333.7l-23.4,8.9c-0.9,0.3-1.5,1.1-1.3,2
			c0.2,0.9,1.1,1.4,2,1.3l25-2c2.9-0.2,4.6-3.5,3.9-6.3c-0.5-2.3-2.6-4.2-4.9-4.2C293.4,333.5,292.9,333.6,292.5,333.7 M162.3,333.6
			l-90,81.3c-4.4,3.9-4,10.9,0.3,15c4.2,4.1,11.2,4.2,15-0.3l78.3-92.7c0.9-1,0.9-2.5-0.1-3.5c-0.5-0.5-1.1-0.7-1.7-0.7
			C163.5,332.9,162.9,333.1,162.3,333.6 M182.3,321.6l-73.2,116.9c-3.1,5-0.9,11.6,4.2,14.4c5.1,2.8,11.9,1.1,14.4-4.2l58.9-124.7
			c0.6-1.2,0.2-2.7-1-3.3c-0.4-0.2-0.8-0.3-1.1-0.3C183.6,320.3,182.8,320.8,182.3,321.6 M291.3,313.9l-42.4,26.8
			c-0.8,0.5-1.1,1.4-0.7,2.3c0.4,0.8,1.4,1.1,2.3,0.7l46.4-19.2c3-1.3,4-5.1,2.5-8c-1.1-2-3.2-3.3-5.4-3.3
			C293,313.2,292.1,313.4,291.3,313.9 M160.6,303.2L30.5,329.4c-6.6,1.3-10.3,8.5-8.5,15c1.8,6.5,8.8,10.7,15,8.5l125.3-43.7
			c1.6-0.6,2.7-2.2,2.2-3.9c-0.4-1.4-1.7-2.3-3.1-2.3C161.1,303.1,160.8,303.1,160.6,303.2 M188.2,301.4L44.4,376.5
			c-6,3.1-7.7,11-4.2,16.8c3.5,5.8,11.1,8,16.8,4.3l0.1,0l134.4-90.7c1.4-1,2-2.8,1.1-4.3c-0.6-1-1.6-1.5-2.7-1.5
			C189.3,301,188.7,301.2,188.2,301.4 M287.7,293l-15,20.9c-0.6,0.9-0.6,1.7,0,2.4c0.7,0.7,1.6,0.6,2.4,0l21.1-15
			c2.7-1.9,2.3-6.1-0.1-8.4c-1.2-1.2-2.9-1.8-4.4-1.8C290.1,291.1,288.6,291.7,287.7,293 M23.7,292.1c0,6.7,5.5,12.6,12.2,12.2
			l168.4-9.7c1.7-0.1,3.1-1.4,3.1-3.1s-1.4-3.1-3.1-3.1L36,279.9c-0.2,0-0.4,0-0.6,0C28.9,279.9,23.7,285.6,23.7,292.1 M279.5,268.7
			l-26.4,57.7c-0.4,0.8-0.1,1.8,0.7,2.3c0.8,0.4,1.8,0.1,2.3-0.7l33.7-53.4c1.7-2.7,0.5-6.5-2.3-8.1c-1-0.6-2.1-0.8-3.2-0.8
			C282.3,265.8,280.4,266.7,279.5,268.7 M266.1,246l-5.5,39.7c-0.1,0.9,0.3,1.8,1.2,2c0.9,0.2,1.7-0.3,2.1-1.2l13.8-37.4
			c1.2-3.1-1.2-6.4-4.4-7.2c-0.5-0.1-1.1-0.2-1.7-0.2C269,241.8,266.5,243.3,266.1,246 M44.9,243.9c-1.7,6.5,2,13.7,8.7,15
			l125.3,23.6c1.5,0.3,3-0.5,3.4-2c0.4-1.5-0.5-2.9-2-3.4L59.8,235.2c-1.2-0.4-2.3-0.6-3.5-0.6C51.1,234.6,46.3,238.5,44.9,243.9
			 M250.7,216.9c-3.3,0-6.1,2.5-5.9,5.8l5.1,87.1c0,0.9,0.8,1.7,1.7,1.7c0.9,0,1.6-0.8,1.7-1.7l3.5-87
			C256.9,219.5,254,216.9,250.7,216.9L250.7,216.9z M79.8,208.1c-2.7,4.8-1.2,11.2,3.8,13.7l137.6,69.1c1.3,0.7,2.9,0.3,3.6-1
			c0.7-1.3,0.2-2.8-1-3.6L93.5,204.3c-1.5-1-3.2-1.4-4.9-1.4C85.1,202.9,81.6,204.8,79.8,208.1 M216.2,195.2c-4,1.2-6.5,5.5-5,9.3
			l28.7,76.8c0.4,1.1,1.4,1.7,2.5,1.3c1.1-0.3,1.6-1.4,1.3-2.5l-18.2-80c-0.7-3.3-3.8-5.4-7.1-5.4
			C217.6,194.9,216.9,195,216.2,195.2 M124.1,187.7c-3.5,3.7-3.6,9.8,0.3,13.1l84.8,71.5c1,0.9,2.5,0.9,3.4-0.1
			c0.9-1,0.8-2.4-0.1-3.4l-75.3-81.4c-1.6-1.8-3.9-2.7-6.2-2.7C128.5,184.7,126,185.7,124.1,187.7 M171.7,183.7
			c-4.1,2.5-5.7,8.1-2.9,12.1l68.7,100.1c0.7,1.1,2.2,1.5,3.3,0.8c1.1-0.7,1.4-2.1,0.8-3.3l-57.7-106.7c-1.5-2.7-4.4-4.2-7.4-4.2
			C174.8,182.4,173.2,182.9,171.7,183.7"/>
	</defs>
	<clipPath id="SVGID_2_">
		<use xlink:href="#SVGID_1_"  style="overflow:visible;"/>
	</clipPath>
	
		<radialGradient id="SVGID_3_" cx="21.4229" cy="736.1636" r="9.4073" gradientTransform="matrix(24.6873 0 0 -24.6873 -321.1833 18501.9844)" gradientUnits="userSpaceOnUse">
		<stop  offset="0" style="stop-color:#72C7F6"/>
		<stop  offset="0.1504" style="stop-color:#72C7F6"/>
		<stop  offset="0.1979" style="stop-color:#75AEF3"/>
		<stop  offset="0.3007" style="stop-color:#7A7EED"/>
		<stop  offset="0.3985" style="stop-color:#7E58E8"/>
		<stop  offset="0.4886" style="stop-color:#813DE5"/>
		<stop  offset="0.5681" style="stop-color:#832DE3"/>
		<stop  offset="0.6288" style="stop-color:#8427E2"/>
		<stop  offset="1" style="stop-color:#8427E2"/>
	</radialGradient>
	<rect x="20.2" y="182.4" class="st1" width="280.6" height="279.5"/>
</g>
</svg>
