<?xml version="1.0" encoding="utf-8"?>
<!-- Generator: Adobe Illustrator 24.0.0, SVG Export Plug-In . SVG Version: 6.00 Build 0)  -->
<svg version="1.1" xmlns="http://www.w3.org/2000/svg" xmlns:xlink="http://www.w3.org/1999/xlink" x="0px" y="0px"
	 viewBox="0 0 256 256" enable-background="new 0 0 256 256" xml:space="preserve">
<g id="Layer_1">
</g>
<g id="Layer_2">
</g>
<g id="Layer_3">
</g>
<g id="Layer_4">
</g>
<g id="Layer_5">
</g>
<g id="Layer_6">
</g>
<g id="Layer_7">
</g>
<g id="Layer_8">
</g>
<g id="Layer_9">
</g>
<g id="Layer_10">
</g>
<g id="Layer_11">
</g>
<g id="Layer_12">
</g>
<g id="Layer_13">
</g>
<g id="Layer_14">
</g>
<g id="Layer_15">
</g>
<g id="Layer_16">
</g>
<g id="Layer_17">
</g>
<g id="Layer_18">
</g>
<g id="Layer_19">
</g>
<g id="Layer_20">
</g>
<g id="Layer_21">
</g>
<g id="Layer_22">
</g>
<g id="Layer_23">
</g>
<g id="Layer_24">
</g>
<g id="Layer_25">
</g>
<g id="Layer_26">
</g>
<g id="Layer_27">
</g>
<g id="Layer_28">
</g>
<g id="Layer_29">
</g>
<g id="Layer_30">
</g>
<g id="Layer_31">
</g>
<g id="Layer_32">
</g>
<g id="Layer_33">
</g>
<g id="Layer_34">
</g>
<g id="Layer_35">
</g>
<g id="Layer_36">
</g>
<g id="Layer_37">
</g>
<g id="Layer_38">
</g>
<g id="Layer_39">
</g>
<g id="Layer_40">
</g>
<g id="Layer_41">
</g>
<g id="Layer_42">
</g>
<g id="Layer_43">
	<g>
		<g>
			<path fill="#FCDD86" d="M210.918,47.34c-17.161,0-31.123,13.962-31.123,31.123c0,9.237,4.049,17.542,10.46,23.247l5.08-9.022
				c2.716,2.973,6.262,5.16,10.281,6.201l-5.028,8.928c3.234,1.142,6.71,1.77,10.33,1.77c17.161,0,31.123-13.962,31.123-31.123
				S228.079,47.34,210.918,47.34z"/>
		</g>
		<g>
			<path d="M210.918,112.086c-3.813,0-7.567-0.644-11.162-1.912c-0.696-0.246-1.249-0.787-1.509-1.479
				c-0.259-0.691-0.2-1.462,0.162-2.105l3.543-6.292c-2.171-0.891-4.193-2.101-6.01-3.594l-3.509,6.232
				c-0.371,0.659-1.021,1.115-1.768,1.239c-0.745,0.124-1.508-0.096-2.073-0.598c-7.18-6.389-11.298-15.543-11.298-25.114
				c0-18.54,15.083-33.623,33.623-33.623s33.623,15.083,33.623,33.623S229.458,112.086,210.918,112.086z M204.306,106.31
				c2.161,0.516,4.376,0.776,6.612,0.776c15.783,0,28.623-12.84,28.623-28.623s-12.84-28.623-28.623-28.623
				s-28.623,12.84-28.623,28.623c0,7.096,2.662,13.924,7.391,19.163l3.471-6.165c0.394-0.699,1.099-1.167,1.896-1.257
				c0.802-0.089,1.588,0.207,2.129,0.798c2.442,2.673,5.575,4.563,9.062,5.467c0.751,0.194,1.37,0.727,1.674,1.441
				c0.304,0.714,0.259,1.529-0.122,2.205L204.306,106.31z"/>
		</g>
		<g>
			<circle fill="#70D6F9" cx="29.373" cy="189.217" r="15.414"/>
		</g>
		<g>
			<circle fill="#70D6F9" cx="87.604" cy="140.12" r="15.414"/>
		</g>
		<g>
			<circle fill="#70D6F9" cx="152.687" cy="181.224" r="15.414"/>
		</g>
		<g>
			<circle fill="#FCA265" cx="210.918" cy="78.463" r="21.123"/>
		</g>
		<g>
			<path fill="#FCDD86" d="M195.335,92.687l-41.216,73.195c4.268,0.394,8.028,2.526,10.572,5.683l40.925-72.677
				C201.597,97.847,198.051,95.661,195.335,92.687z"/>
		</g>
		<g>
			<path fill="#CBEFF7" d="M72.836,144.519l-36.592,30.914c3.694,1.845,6.547,5.117,7.816,9.106l36.412-30.762
				C76.82,151.866,74.032,148.538,72.836,144.519z"/>
		</g>
		<g>
			<path fill="#CBEFF7" d="M143.973,168.513l-41.164-25.966c-0.666,4.201-3.018,7.833-6.354,10.18l41.053,25.896
				C138.221,174.436,140.609,170.824,143.973,168.513z"/>
		</g>
		<g>
			<path fill="#FC657E" d="M103.013,204.685c-3.1-0.6-5.6-3-6.2-6.1c0-0.1-0.3-0.1-0.3,0c-0.6,3.1-3.1,5.5-6.2,6.1
				c-0.1,0-0.1,0.2,0,0.3c3.1,0.6,5.6,3,6.2,6.1c0,0.1,0.3,0.1,0.3,0c0.6-3.1,3.1-5.5,6.2-6.1
				C103.113,204.885,103.113,204.685,103.013,204.685z"/>
		</g>
		<g>
			<path fill="#87D147" d="M31.013,123.985h2.3v2.3c0,1.8,1.4,3.2,3.2,3.2c1.7,0,3.2-1.4,3.2-3.1v-0.1v-2.3h2.3
				c1.8,0,3.2-1.4,3.2-3.2c0-1.7-1.4-3.2-3.1-3.2h-0.1h-2.3v-2.3c0-1.8-1.4-3.2-3.2-3.2c-1.7,0-3.2,1.4-3.2,3.1v0.1v2.3h-2.3
				c-1.8,0-3.2,1.4-3.2,3.2C27.713,122.485,29.113,123.985,31.013,123.985C30.913,123.985,30.913,123.985,31.013,123.985z"/>
		</g>
		<g>
			<circle fill="#70D6F9" cx="252.6" cy="119.385" r="3.4"/>
		</g>
		<g>
			<circle fill="#F5C84C" cx="3.4" cy="151.885" r="3.4"/>
		</g>
		<g>
			<path fill="#F5C84C" d="M213.813,144.685c4.5-0.8,8-4.3,8.9-8.7c0-0.2,0.4-0.2,0.4,0c0.9,4.4,4.4,7.9,8.9,8.7
				c0.2,0,0.2,0.3,0,0.4c-4.5,0.8-8,4.3-8.9,8.7c0,0.2-0.4,0.2-0.4,0c-0.9-4.4-4.4-7.9-8.9-8.7
				C213.613,144.985,213.613,144.685,213.813,144.685z"/>
		</g>
		<g>
			<path d="M29.373,207.131c-9.878,0-17.914-8.036-17.914-17.914s8.036-17.915,17.914-17.915s17.914,8.037,17.914,17.915
				S39.251,207.131,29.373,207.131z M29.373,176.302c-7.121,0-12.914,5.793-12.914,12.915c0,7.121,5.793,12.914,12.914,12.914
				s12.914-5.793,12.914-12.914C42.287,182.096,36.494,176.302,29.373,176.302z"/>
		</g>
		<g>
			<path d="M87.604,158.034c-9.878,0-17.914-8.036-17.914-17.914s8.036-17.914,17.914-17.914s17.914,8.036,17.914,17.914
				S97.482,158.034,87.604,158.034z M87.604,127.206c-7.121,0-12.914,5.793-12.914,12.914s5.793,12.914,12.914,12.914
				s12.914-5.793,12.914-12.914S94.725,127.206,87.604,127.206z"/>
		</g>
		<g>
			<path d="M152.687,199.138c-9.878,0-17.914-8.036-17.914-17.914s8.036-17.914,17.914-17.914s17.914,8.036,17.914,17.914
				S162.564,199.138,152.687,199.138z M152.687,168.31c-7.121,0-12.914,5.793-12.914,12.914s5.793,12.914,12.914,12.914
				s12.914-5.793,12.914-12.914S159.808,168.31,152.687,168.31z"/>
		</g>
		<g>
			<path d="M210.918,102.086c-13.025,0-23.623-10.597-23.623-23.623s10.598-23.623,23.623-23.623s23.623,10.597,23.623,23.623
				S223.943,102.086,210.918,102.086z M210.918,59.84c-10.269,0-18.623,8.354-18.623,18.623s8.354,18.623,18.623,18.623
				s18.623-8.354,18.623-18.623S221.187,59.84,210.918,59.84z"/>
		</g>
		<g>
			<path d="M164.69,174.065c-0.753,0-1.47-0.34-1.947-0.932c-2.214-2.749-5.358-4.44-8.854-4.762
				c-0.844-0.078-1.591-0.578-1.984-1.328s-0.38-1.649,0.035-2.388l41.217-73.195c0.394-0.699,1.099-1.167,1.896-1.257
				c0.802-0.089,1.588,0.207,2.129,0.798c2.442,2.673,5.575,4.563,9.062,5.467c0.751,0.194,1.37,0.727,1.674,1.441
				c0.304,0.714,0.259,1.529-0.122,2.205l-40.925,72.677c-0.407,0.723-1.146,1.196-1.973,1.265
				C164.828,174.063,164.759,174.065,164.69,174.065z M157.98,164.119c2.243,0.699,4.34,1.837,6.153,3.34l37.818-67.162
				c-2.171-0.891-4.194-2.101-6.01-3.594L157.98,164.119z"/>
		</g>
		<g>
			<path d="M44.06,187.039c-0.231,0-0.464-0.032-0.692-0.098c-0.803-0.231-1.437-0.848-1.69-1.644
				c-1.047-3.291-3.435-6.071-6.551-7.628c-0.752-0.375-1.265-1.104-1.365-1.939c-0.1-0.835,0.227-1.664,0.869-2.207l36.592-30.914
				c0.645-0.544,1.522-0.726,2.328-0.486c0.809,0.241,1.441,0.874,1.681,1.683c0.987,3.317,3.319,6.144,6.399,7.756
				c0.738,0.386,1.235,1.114,1.326,1.941c0.091,0.827-0.235,1.646-0.872,2.183l-36.412,30.762
				C45.217,186.835,44.643,187.039,44.06,187.039z M40.445,175.156c1.85,1.458,3.402,3.271,4.555,5.316l31.317-26.458
				c-1.825-1.487-3.347-3.324-4.468-5.389L40.445,175.156z"/>
		</g>
		<g>
			<path d="M137.509,181.123c-0.465,0-0.929-0.13-1.334-0.386l-41.054-25.896c-0.707-0.446-1.144-1.216-1.165-2.051
				c-0.021-0.836,0.377-1.627,1.061-2.108c2.84-1.998,4.78-5.105,5.323-8.526c0.132-0.831,0.672-1.539,1.438-1.886
				c0.765-0.347,1.653-0.286,2.366,0.163l41.165,25.965c0.711,0.448,1.149,1.225,1.166,2.065c0.016,0.841-0.392,1.633-1.084,2.109
				c-2.86,1.965-4.834,5.051-5.416,8.469c-0.141,0.824-0.683,1.523-1.446,1.864C138.202,181.051,137.854,181.123,137.509,181.123z
				 M100.624,152.401l35.388,22.322c0.856-2.19,2.139-4.201,3.765-5.901l-35.44-22.354
				C103.5,148.664,102.234,150.686,100.624,152.401z"/>
		</g>
	</g>
</g>
<g id="Layer_44">
</g>
<g id="Layer_45">
</g>
<g id="Layer_46">
</g>
<g id="Layer_47">
</g>
<g id="Layer_48">
</g>
<g id="Layer_49">
</g>
<g id="Layer_50">
</g>
<g id="Layer_51">
</g>
<g id="Layer_52">
</g>
<g id="Layer_53">
</g>
<g id="Layer_54">
</g>
<g id="Layer_55">
</g>
<g id="Layer_56">
</g>
<g id="Layer_57">
</g>
<g id="Layer_58">
</g>
<g id="Layer_59">
</g>
<g id="Layer_60">
</g>
<g id="Layer_61">
</g>
<g id="Layer_62">
</g>
<g id="Layer_63">
</g>
<g id="Layer_64">
</g>
<g id="Layer_65">
</g>
<g id="Layer_66">
</g>
<g id="Layer_67">
</g>
<g id="Layer_68">
</g>
<g id="Layer_69">
</g>
<g id="Layer_70">
</g>
<g id="Layer_71">
</g>
<g id="Layer_72">
</g>
<g id="Layer_73">
</g>
<g id="Layer_74">
</g>
<g id="Layer_75">
</g>
</svg>
