<svg width="307" height="370" viewBox="0 0 307 370" fill="none" xmlns="http://www.w3.org/2000/svg">
<path fill-rule="evenodd" clip-rule="evenodd" d="M300.532 264.031V363.298H201.263V264.031H234.87V296.086L250.897 284.273L266.922 296.086V264.031H300.532Z" fill="#FFE078"/>
<path fill-rule="evenodd" clip-rule="evenodd" d="M201.263 264.031V363.298H101.996V290.215V282.346V272.251V264.031H135.601V296.086L151.628 284.273L167.658 296.086V264.031H201.263Z" fill="#FFE078"/>
<path fill-rule="evenodd" clip-rule="evenodd" d="M167.658 264.031V296.086L151.628 284.273L135.601 296.086V264.031H135.604H151.631H167.658Z" fill="#FF6862"/>
<path fill-rule="evenodd" clip-rule="evenodd" d="M266.922 264.031V296.086L250.897 284.273L234.87 296.086V264.031H266.922Z" fill="#FF6862"/>
<path fill-rule="evenodd" clip-rule="evenodd" d="M201.263 125.688C217.048 125.688 229.845 138.481 229.845 154.266C229.845 170.053 217.048 182.848 201.263 182.848C185.478 182.848 172.682 170.053 172.682 154.266C172.681 138.481 185.478 125.688 201.263 125.688Z" fill="#F7F7F7"/>
<path fill-rule="evenodd" clip-rule="evenodd" d="M273.443 144.367V164.172H258.297C256.814 172.781 253.427 180.734 248.591 187.591L259.305 198.307L245.299 212.311L234.585 201.597C227.731 206.433 219.775 209.82 211.168 211.3V226.449H201.263H191.361V211.3C182.757 209.819 174.801 206.435 167.944 201.597L157.228 212.311L143.222 198.307L153.938 187.591C149.1 180.734 145.716 172.781 144.232 164.172L129.085 164.173V144.368H144.231C145.714 135.762 149.098 127.806 153.934 120.949L143.22 110.236L157.226 96.2318L167.939 106.943C174.796 102.107 182.752 98.7198 191.358 97.2398V82.0938H201.26H211.165V97.2398C219.771 98.7208 227.727 102.107 234.582 106.945L245.296 96.2308L259.302 110.235L248.588 120.948C253.424 127.805 256.811 135.761 258.294 144.367H273.443ZM229.844 154.269C229.844 138.484 217.047 125.69 201.262 125.69C185.477 125.69 172.681 138.484 172.681 154.269C172.681 170.056 185.478 182.85 201.262 182.85C217.048 182.851 229.844 170.056 229.844 154.269Z" fill="#FF6862"/>
<path fill-rule="evenodd" clip-rule="evenodd" d="M153.433 48.6047V68.5027H53.8179V48.6047V27.2497H75.3339V15.7027C75.3339 10.4447 79.5989 6.17969 84.8569 6.17969H122.395C127.653 6.17969 131.918 10.4447 131.918 15.7027V27.2487H153.432L153.433 48.6047Z" fill="#74B8F6"/>
<path fill-rule="evenodd" clip-rule="evenodd" d="M167.658 264.031H151.631H135.604H135.601H101.996V272.251V282.345H10.2968C7.91877 282.345 5.98877 280.415 5.98877 278.039V52.9076C5.98877 50.5266 7.91877 48.6016 10.2968 48.6016H53.8178V68.4996H153.433V48.6016H196.957C199.335 48.6016 201.263 50.5266 201.263 52.9076V82.0886H191.361V97.2346C182.755 98.7156 174.799 102.102 167.942 106.938L157.229 96.2266L143.223 110.231L153.937 120.944C149.101 127.801 145.717 135.757 144.234 144.363H129.088V164.168H144.234C145.717 172.777 149.101 180.73 153.94 187.587L143.224 198.303L157.23 212.307L167.946 201.593C174.803 206.432 182.759 209.816 191.363 211.296V226.445H201.266V264.029H167.658V264.031Z" fill="#F7F7F7"/>
<path fill-rule="evenodd" clip-rule="evenodd" d="M101.996 288.108H10.297C4.746 288.108 0.229004 283.594 0.229004 278.042V52.9098C0.229004 47.3588 4.746 42.8438 10.297 42.8438H53.818C56.998 42.8438 59.58 45.4237 59.58 48.6037C59.58 51.7837 57.003 54.3637 53.822 54.3637H11.75V276.585H101.995C105.175 276.585 107.755 279.165 107.755 282.345C107.755 285.525 105.179 288.108 101.996 288.108Z" fill="#333333"/>
<path fill-rule="evenodd" clip-rule="evenodd" d="M201.263 87.8508C198.083 87.8508 195.503 85.2707 195.503 82.0907V54.3637H153.433C150.253 54.3637 147.671 51.7838 147.671 48.6038C147.671 45.4238 150.249 42.8438 153.429 42.8438H196.955C202.504 42.8438 207.021 47.3578 207.021 52.9098V82.0907C207.023 85.2707 204.445 87.8508 201.263 87.8508Z" fill="#333333"/>
<path fill-rule="evenodd" clip-rule="evenodd" d="M153.433 74.2649H53.8181C50.6381 74.2649 48.0581 71.6849 48.0581 68.5049V27.2509C48.0581 24.0709 50.6381 21.4909 53.8181 21.4909H69.5741V15.7049C69.5741 7.27588 76.4311 0.421875 84.8571 0.421875H122.393C130.822 0.421875 137.676 7.27888 137.676 15.7049V21.4909H153.429C156.609 21.4909 159.189 24.0709 159.189 27.2509V68.5039C159.193 71.6869 156.613 74.2649 153.433 74.2649ZM59.5791 62.7449H147.674V33.0109H131.92C128.74 33.0109 126.16 30.4309 126.16 27.2509V15.7049C126.16 13.6289 124.47 11.9419 122.397 11.9419H84.8601C82.7841 11.9419 81.0971 13.6319 81.0971 15.7049V27.2509C81.0971 30.4309 78.5171 33.0109 75.3371 33.0109H59.5811V62.7449H59.5791Z" fill="#333333"/>
<path fill-rule="evenodd" clip-rule="evenodd" d="M201.263 369.059H101.997C98.8168 369.059 96.2368 366.479 96.2368 363.299V264.033C96.2368 260.853 98.8168 258.273 101.997 258.273H201.263C204.443 258.273 207.023 260.853 207.023 264.033C207.023 267.213 204.443 269.793 201.263 269.793H107.757V357.539H201.263C204.443 357.539 207.023 360.119 207.023 363.299C207.023 366.479 204.445 369.059 201.263 369.059Z" fill="#333333"/>
<path fill-rule="evenodd" clip-rule="evenodd" d="M167.658 301.85C166.451 301.85 165.248 301.471 164.24 300.727L151.63 291.434L139.02 300.727C137.271 302.016 134.945 302.213 133.006 301.231C131.067 300.252 129.843 298.262 129.843 296.09V264.033C129.843 260.853 132.423 258.273 135.603 258.273C138.783 258.273 141.363 260.853 141.363 264.033V284.69L148.213 279.64C150.246 278.142 153.015 278.142 155.048 279.64L161.898 284.69V264.033C161.898 260.853 164.478 258.273 167.658 258.273C170.838 258.273 173.418 260.853 173.418 264.033V296.09C173.418 298.262 172.194 300.252 170.255 301.231C169.434 301.643 168.544 301.85 167.658 301.85Z" fill="#333333"/>
<path fill-rule="evenodd" clip-rule="evenodd" d="M300.532 369.059H201.263C198.083 369.059 195.503 366.479 195.503 363.299V264.033C195.503 260.853 198.083 258.273 201.263 258.273H300.532C303.712 258.273 306.292 260.853 306.292 264.033V363.299C306.292 366.478 303.711 369.059 300.532 369.059ZM207.023 357.539H294.772V269.793H207.023V357.539Z" fill="#333333"/>
<path fill-rule="evenodd" clip-rule="evenodd" d="M266.924 301.85C265.717 301.85 264.514 301.471 263.506 300.727L250.899 291.434L238.289 300.727C236.539 302.016 234.214 302.21 232.275 301.231C230.336 300.252 229.112 298.262 229.112 296.09V264.033C229.112 260.853 231.692 258.273 234.872 258.273C238.052 258.273 240.632 260.853 240.632 264.033V284.69L247.482 279.64C249.515 278.142 252.284 278.142 254.317 279.64L261.164 284.687V264.033C261.164 260.853 263.744 258.273 266.924 258.273C270.104 258.273 272.684 260.853 272.684 264.033V296.09C272.684 298.262 271.46 300.252 269.521 301.231C268.7 301.643 267.81 301.85 266.924 301.85Z" fill="#333333"/>
<path fill-rule="evenodd" clip-rule="evenodd" d="M42.3421 128.483C40.8661 128.483 39.3971 127.919 38.2791 126.805L31.0051 119.564C28.7491 117.32 28.7421 113.672 30.9861 111.418C33.2301 109.162 36.8781 109.155 39.1321 111.399L42.6861 114.937L57.0161 102.978C59.4591 100.941 63.0901 101.267 65.1281 103.71C67.1661 106.153 66.8391 109.784 64.3961 111.822L46.0341 127.144C44.9601 128.039 43.6501 128.483 42.3421 128.483Z" fill="#333333"/>
<path fill-rule="evenodd" clip-rule="evenodd" d="M42.3421 186.304C40.8661 186.304 39.3971 185.74 38.2791 184.626L31.0051 177.385C28.7491 175.141 28.7421 171.493 30.9861 169.239C33.2301 166.983 36.8781 166.976 39.1321 169.22L42.6861 172.758L57.0161 160.799C59.4591 158.761 63.0901 159.088 65.1281 161.531C67.1661 163.974 66.8391 167.605 64.3961 169.643L46.0341 184.965C44.9601 185.862 43.6501 186.304 42.3421 186.304Z" fill="#333333"/>
<path fill-rule="evenodd" clip-rule="evenodd" d="M42.3421 244.131C40.8661 244.131 39.3971 243.567 38.2791 242.453L31.0051 235.212C28.7491 232.968 28.7421 229.32 30.9861 227.066C33.2301 224.81 36.8751 224.803 39.1321 227.047L42.6861 230.585L57.0161 218.626C59.4591 216.589 63.0901 216.917 65.1281 219.358C67.1661 221.801 66.8391 225.432 64.3961 227.47L46.0341 242.792C44.9601 243.69 43.6501 244.131 42.3421 244.131Z" fill="#333333"/>
<path fill-rule="evenodd" clip-rule="evenodd" d="M201.263 188.612C182.327 188.612 166.922 173.207 166.922 154.271C166.922 135.335 182.327 119.93 201.263 119.93C220.199 119.93 235.604 135.335 235.604 154.271C235.604 173.207 220.199 188.612 201.263 188.612ZM201.263 131.451C188.68 131.451 178.442 141.689 178.442 154.272C178.442 166.855 188.68 177.094 201.263 177.094C213.846 177.094 224.085 166.855 224.085 154.272C224.084 141.689 213.848 131.451 201.263 131.451Z" fill="#333333"/>
<path fill-rule="evenodd" clip-rule="evenodd" d="M201.263 269.797C198.083 269.797 195.503 267.217 195.503 264.037V226.455C195.503 223.275 198.083 220.695 201.263 220.695C204.443 220.695 207.023 223.275 207.023 226.455V264.037C207.023 267.217 204.445 269.797 201.263 269.797Z" fill="#333333"/>
<path fill-rule="evenodd" clip-rule="evenodd" d="M100.808 120.817H85.8152C82.6352 120.817 80.0552 118.237 80.0552 115.057C80.0552 111.877 82.6352 109.297 85.8152 109.297H100.808C103.988 109.297 106.568 111.877 106.568 115.057C106.568 118.237 103.991 120.817 100.808 120.817Z" fill="#333333"/>
<path fill-rule="evenodd" clip-rule="evenodd" d="M100.808 178.637H85.8152C82.6352 178.637 80.0552 176.057 80.0552 172.877C80.0552 169.697 82.6352 167.117 85.8152 167.117H100.808C103.988 167.117 106.568 169.697 106.568 172.877C106.568 176.057 103.991 178.637 100.808 178.637Z" fill="#333333"/>
<path fill-rule="evenodd" clip-rule="evenodd" d="M100.808 236.465H85.8152C82.6352 236.465 80.0552 233.885 80.0552 230.705C80.0552 227.525 82.6352 224.945 85.8152 224.945H100.808C103.988 224.945 106.568 227.525 106.568 230.705C106.568 233.885 103.991 236.465 100.808 236.465Z" fill="#333333"/>
<path fill-rule="evenodd" clip-rule="evenodd" d="M211.168 232.214H191.36C188.18 232.214 185.6 229.634 185.6 226.454V215.971C179.646 214.471 173.996 212.129 168.718 208.973L161.302 216.389C159.053 218.638 155.405 218.638 153.156 216.389L139.15 202.385C138.07 201.305 137.463 199.839 137.463 198.312C137.463 196.783 138.07 195.319 139.15 194.239L146.566 186.823C143.41 181.543 141.065 175.893 139.568 169.939H129.087C125.907 169.939 123.327 167.359 123.327 164.179V144.372C123.327 141.192 125.907 138.612 129.087 138.612H139.568C141.068 132.658 143.408 127.008 146.566 121.728L139.15 114.312C138.07 113.232 137.463 111.766 137.463 110.239C137.463 108.712 138.07 107.246 139.15 106.166L153.156 92.1619C155.405 89.9129 159.053 89.9129 161.302 92.1619L168.718 99.5759C173.998 96.4199 179.648 94.078 185.602 92.577V82.0959C185.602 78.9159 188.182 76.3359 191.362 76.3359H211.169C214.349 76.3359 216.929 78.9159 216.929 82.0959V92.577C222.883 94.077 228.533 96.4189 233.813 99.5759L241.227 92.1619C243.476 89.9129 247.124 89.9129 249.373 92.1619L263.379 106.166C264.459 107.246 265.066 108.712 265.066 110.239C265.066 111.768 264.459 113.232 263.379 114.312L255.963 121.728C259.119 127.008 261.461 132.66 262.961 138.612H273.442C276.622 138.612 279.202 141.192 279.202 144.372V164.179C279.202 167.359 276.622 169.939 273.442 169.939H262.961C261.461 175.893 259.119 181.543 255.963 186.823L263.379 194.239C264.459 195.319 265.066 196.785 265.066 198.312C265.066 199.839 264.459 201.305 263.379 202.385L249.373 216.389C247.124 218.638 243.476 218.638 241.227 216.389L233.811 208.973C228.531 212.129 222.881 214.471 216.927 215.971V226.454C216.928 229.637 214.348 232.214 211.168 232.214ZM197.12 220.694H205.407V211.305C205.407 208.502 207.425 206.104 210.19 205.629C217.822 204.314 224.914 201.376 231.267 196.895C233.557 195.28 236.679 195.546 238.659 197.529L245.3 204.17L251.161 198.312L244.52 191.671C242.538 189.689 242.271 186.569 243.886 184.276C248.367 177.926 251.307 170.834 252.622 163.202C253.097 160.44 255.495 158.419 258.298 158.419H267.684V150.132H258.298C255.495 150.132 253.097 148.114 252.622 145.349C251.307 137.717 248.369 130.625 243.889 124.272C242.274 121.982 242.54 118.86 244.522 116.88L251.163 110.239L245.302 104.381L238.661 111.022C236.679 113.004 233.559 113.271 231.267 111.656C224.914 107.175 217.824 104.235 210.192 102.92C207.43 102.445 205.409 100.047 205.409 97.2439V87.8579H197.122V97.2439C197.122 100.047 195.104 102.445 192.339 102.92C184.707 104.235 177.615 107.173 171.262 111.653C168.97 113.268 165.85 112.999 163.87 111.02L157.229 104.381L151.368 110.239L158.009 116.88C159.991 118.862 160.258 121.982 158.643 124.272C154.162 130.625 151.222 137.717 149.909 145.349C149.434 148.111 147.036 150.132 144.233 150.132H134.847V158.419H144.233C147.036 158.419 149.434 160.437 149.909 163.202C151.224 170.836 154.162 177.926 158.645 184.276C160.26 186.566 159.994 189.688 158.012 191.671L151.371 198.312L157.232 204.17L163.875 197.529C165.857 195.547 168.977 195.28 171.27 196.895C177.618 201.376 184.71 204.313 192.344 205.629C195.106 206.104 197.127 208.502 197.127 211.305L197.126 220.694H197.12Z" fill="#333333"/>
</svg>
