<?xml version="1.0" encoding="utf-8"?>
<!-- Generator: Adobe Illustrator 24.0.0, SVG Export Plug-In . SVG Version: 6.00 Build 0)  -->
<svg version="1.1" xmlns="http://www.w3.org/2000/svg" xmlns:xlink="http://www.w3.org/1999/xlink" x="0px" y="0px"
	 viewBox="0 0 256 256" enable-background="new 0 0 256 256" xml:space="preserve">
<g id="Layer_1">
</g>
<g id="Layer_2">
</g>
<g id="Layer_3">
</g>
<g id="Layer_4">
</g>
<g id="Layer_5">
</g>
<g id="Layer_6">
</g>
<g id="Layer_7">
</g>
<g id="Layer_8">
</g>
<g id="Layer_9">
</g>
<g id="Layer_10">
</g>
<g id="Layer_11">
</g>
<g id="Layer_12">
</g>
<g id="Layer_13">
</g>
<g id="Layer_14">
</g>
<g id="Layer_15">
</g>
<g id="Layer_16">
</g>
<g id="Layer_17">
</g>
<g id="Layer_18">
</g>
<g id="Layer_19">
</g>
<g id="Layer_20">
</g>
<g id="Layer_21">
</g>
<g id="Layer_22">
</g>
<g id="Layer_23">
</g>
<g id="Layer_24">
</g>
<g id="Layer_25">
</g>
<g id="Layer_26">
</g>
<g id="Layer_27">
</g>
<g id="Layer_28">
</g>
<g id="Layer_29">
</g>
<g id="Layer_30">
</g>
<g id="Layer_31">
</g>
<g id="Layer_32">
</g>
<g id="Layer_33">
</g>
<g id="Layer_34">
</g>
<g id="Layer_35">
</g>
<g id="Layer_36">
</g>
<g id="Layer_37">
</g>
<g id="Layer_38">
</g>
<g id="Layer_39">
</g>
<g id="Layer_40">
	<g>
		<g>
			<g>
				<path fill="#6CADEF" d="M228.518,12.037H89.57c-6.552,0-11.912,5.36-11.912,11.912v82.94c15.8,0.04,31.587,6.09,43.654,18.158
					c12.855,12.854,18.867,29.998,18.042,46.867h89.163c6.552,0,11.912-5.36,11.912-11.912V23.949
					C240.43,17.398,235.07,12.037,228.518,12.037z"/>
			</g>
		</g>
		<g>
			<g>
				<path fill="#70D6F9" d="M218.111,37.022h-1.419c-2.761,0-5-2.239-5-5s2.239-5,5-5h1.419c2.761,0,5,2.239,5,5
					S220.873,37.022,218.111,37.022z"/>
			</g>
		</g>
		<g>
			<g>
				<path fill="#70D6F9" d="M218.111,76.991h-1.419c-2.761,0-5-2.239-5-5s2.239-5,5-5h1.419c2.761,0,5,2.239,5,5
					S220.873,76.991,218.111,76.991z"/>
			</g>
		</g>
		<g>
			<g>
				<path fill="#70D6F9" d="M218.111,116.96h-1.419c-2.761,0-5-2.239-5-5s2.239-5,5-5h1.419c2.761,0,5,2.239,5,5
					S220.873,116.96,218.111,116.96z"/>
			</g>
		</g>
		<g>
			<g>
				<path fill="#70D6F9" d="M218.111,156.929h-1.419c-2.761,0-5-2.239-5-5s2.239-5,5-5h1.419c2.761,0,5,2.239,5,5
					S220.873,156.929,218.111,156.929z"/>
			</g>
		</g>
		<g>
			<g>
				<path fill="#F5C84C" d="M197.111,37.022h-1.419c-2.761,0-5-2.239-5-5s2.239-5,5-5h1.419c2.761,0,5,2.239,5,5
					S199.873,37.022,197.111,37.022z"/>
			</g>
		</g>
		<g>
			<g>
				<path fill="#F5C84C" d="M197.111,76.991h-1.419c-2.761,0-5-2.239-5-5s2.239-5,5-5h1.419c2.761,0,5,2.239,5,5
					S199.873,76.991,197.111,76.991z"/>
			</g>
		</g>
		<g>
			<g>
				<path fill="#F5C84C" d="M197.111,116.96h-1.419c-2.761,0-5-2.239-5-5s2.239-5,5-5h1.419c2.761,0,5,2.239,5,5
					S199.873,116.96,197.111,116.96z"/>
			</g>
		</g>
		<g>
			<g>
				<path fill="#F5C84C" d="M197.111,156.929h-1.419c-2.761,0-5-2.239-5-5s2.239-5,5-5h1.419c2.761,0,5,2.239,5,5
					S199.873,156.929,197.111,156.929z"/>
			</g>
		</g>
		<g>
			<g>
				<path d="M228.518,174.414h-89.163c-0.685,0-1.339-0.28-1.811-0.776s-0.72-1.163-0.687-1.846
					c0.82-16.761-5.49-33.155-17.313-44.978c-11.197-11.197-26.075-17.385-41.893-17.425c-1.379-0.003-2.494-1.122-2.494-2.5V23.95
					c0-7.947,6.465-14.412,14.412-14.412h138.947c7.947,0,14.412,6.465,14.412,14.412v136.052
					C242.93,167.949,236.465,174.414,228.518,174.414z M141.927,169.414h86.591c5.189,0,9.412-4.222,9.412-9.412V23.95
					c0-5.19-4.223-9.412-9.412-9.412H89.57c-5.189,0-9.412,4.222-9.412,9.412v80.493c16.214,0.655,31.375,7.289,42.922,18.836
					C135.281,135.48,142.067,152.167,141.927,169.414z"/>
			</g>
		</g>
		<g>
			<path d="M240,54.506H78.088c-1.381,0-2.5-1.119-2.5-2.5s1.119-2.5,2.5-2.5H240c1.381,0,2.5,1.119,2.5,2.5
				S241.381,54.506,240,54.506z"/>
		</g>
		<g>
			<path d="M240,94.476H78.088c-1.381,0-2.5-1.119-2.5-2.5s1.119-2.5,2.5-2.5H240c1.381,0,2.5,1.119,2.5,2.5
				S241.381,94.476,240,94.476z"/>
		</g>
		<g>
			<path d="M240,134.445H127.972c-1.381,0-2.5-1.119-2.5-2.5s1.119-2.5,2.5-2.5H240c1.381,0,2.5,1.119,2.5,2.5
				S241.381,134.445,240,134.445z"/>
		</g>
		<g>
			<g>
				<path d="M218.111,39.522h-1.419c-4.136,0-7.5-3.364-7.5-7.5s3.364-7.5,7.5-7.5h1.419c4.136,0,7.5,3.364,7.5,7.5
					S222.247,39.522,218.111,39.522z M216.692,29.522c-1.379,0-2.5,1.122-2.5,2.5s1.121,2.5,2.5,2.5h1.419
					c1.379,0,2.5-1.122,2.5-2.5s-1.121-2.5-2.5-2.5H216.692z"/>
			</g>
		</g>
		<g>
			<g>
				<path d="M218.111,79.491h-1.419c-4.136,0-7.5-3.364-7.5-7.5s3.364-7.5,7.5-7.5h1.419c4.136,0,7.5,3.364,7.5,7.5
					S222.247,79.491,218.111,79.491z M216.692,69.491c-1.379,0-2.5,1.122-2.5,2.5s1.121,2.5,2.5,2.5h1.419
					c1.379,0,2.5-1.122,2.5-2.5s-1.121-2.5-2.5-2.5H216.692z"/>
			</g>
		</g>
		<g>
			<g>
				<path d="M218.111,119.46h-1.419c-4.136,0-7.5-3.364-7.5-7.5s3.364-7.5,7.5-7.5h1.419c4.136,0,7.5,3.364,7.5,7.5
					S222.247,119.46,218.111,119.46z M216.692,109.46c-1.379,0-2.5,1.122-2.5,2.5s1.121,2.5,2.5,2.5h1.419
					c1.379,0,2.5-1.122,2.5-2.5s-1.121-2.5-2.5-2.5H216.692z"/>
			</g>
		</g>
		<g>
			<g>
				<path d="M218.111,159.429h-1.419c-4.136,0-7.5-3.364-7.5-7.5s3.364-7.5,7.5-7.5h1.419c4.136,0,7.5,3.364,7.5,7.5
					S222.247,159.429,218.111,159.429z M216.692,149.429c-1.379,0-2.5,1.122-2.5,2.5s1.121,2.5,2.5,2.5h1.419
					c1.379,0,2.5-1.122,2.5-2.5s-1.121-2.5-2.5-2.5H216.692z"/>
			</g>
		</g>
		<g>
			<g>
				<path d="M197.111,39.522h-1.419c-4.136,0-7.5-3.364-7.5-7.5s3.364-7.5,7.5-7.5h1.419c4.136,0,7.5,3.364,7.5,7.5
					S201.247,39.522,197.111,39.522z M195.692,29.522c-1.379,0-2.5,1.122-2.5,2.5s1.121,2.5,2.5,2.5h1.419
					c1.379,0,2.5-1.122,2.5-2.5s-1.121-2.5-2.5-2.5H195.692z"/>
			</g>
		</g>
		<g>
			<g>
				<path d="M197.111,79.491h-1.419c-4.136,0-7.5-3.364-7.5-7.5s3.364-7.5,7.5-7.5h1.419c4.136,0,7.5,3.364,7.5,7.5
					S201.247,79.491,197.111,79.491z M195.692,69.491c-1.379,0-2.5,1.122-2.5,2.5s1.121,2.5,2.5,2.5h1.419
					c1.379,0,2.5-1.122,2.5-2.5s-1.121-2.5-2.5-2.5H195.692z"/>
			</g>
		</g>
		<g>
			<g>
				<path d="M197.111,119.46h-1.419c-4.136,0-7.5-3.364-7.5-7.5s3.364-7.5,7.5-7.5h1.419c4.136,0,7.5,3.364,7.5,7.5
					S201.247,119.46,197.111,119.46z M195.692,109.46c-1.379,0-2.5,1.122-2.5,2.5s1.121,2.5,2.5,2.5h1.419
					c1.379,0,2.5-1.122,2.5-2.5s-1.121-2.5-2.5-2.5H195.692z"/>
			</g>
		</g>
		<g>
			<g>
				<path d="M197.111,159.429h-1.419c-4.136,0-7.5-3.364-7.5-7.5s3.364-7.5,7.5-7.5h1.419c4.136,0,7.5,3.364,7.5,7.5
					S201.247,159.429,197.111,159.429z M195.692,149.429c-1.379,0-2.5,1.122-2.5,2.5s1.121,2.5,2.5,2.5h1.419
					c1.379,0,2.5-1.122,2.5-2.5s-1.121-2.5-2.5-2.5H195.692z"/>
			</g>
		</g>
		<g>
			<path fill="#70D6F9" d="M54.747,146.084l-21.047-21.047c-0.004,0.004-0.007,0.007-0.011,0.011
				c-12.074,12.073-18.113,27.931-18.118,43.79h29.752C45.322,159.951,48.923,151.907,54.747,146.084z"/>
		</g>
		<g>
			<path fill="#B2E26D" d="M77.5,136.658v-29.765c-0.005,0-0.01,0-0.015,0c-17.074,0-32.558,6.943-43.776,18.153l21.038,21.038
				C60.57,140.26,68.615,136.658,77.5,136.658z"/>
		</g>
		<g>
			<path fill="#FC657E" d="M121.312,125.047c-12.107-12.108-27.959-18.162-43.812-18.162v0.008l0,29.765h0
				c17.772,0,32.179,14.407,32.179,32.179s-14.407,32.179-32.179,32.179s-32.179-14.407-32.179-32.179v0H15.57
				c-0.006,15.874,6.033,31.749,18.118,43.833c24.158,24.16,63.468,24.157,87.624,0C145.47,188.513,145.47,149.205,121.312,125.047z
				"/>
		</g>
		<g>
			<path fill="#F5C84C" d="M45.322,168.837L45.322,168.837l-29.752,0c-0.006,15.874,6.033,31.749,18.118,43.833
				c12.054,12.055,27.881,18.092,43.715,18.116l0.023-29.774C59.689,200.972,45.322,186.584,45.322,168.837z"/>
		</g>
		<g>
			<path d="M45.321,171.337H15.57c-0.663,0-1.299-0.264-1.768-0.732c-0.47-0.469-0.732-1.105-0.732-1.769
				c0.005-17.228,6.7-33.407,18.851-45.557c0.015-0.015,0.029-0.029,0.045-0.044c0.028-0.027,0.059-0.055,0.087-0.08
				c0.991-0.866,2.483-0.817,3.414,0.114l21.047,21.047c0.977,0.976,0.977,2.559,0,3.535c-5.605,5.606-8.692,13.06-8.692,20.986
				C47.821,170.218,46.702,171.337,45.321,171.337z M18.122,166.337h24.787c0.53-7.493,3.439-14.517,8.364-20.191l-17.538-17.538
				C24.181,138.979,18.705,152.211,18.122,166.337z"/>
		</g>
		<g>
			<path d="M54.747,148.583c-0.64,0-1.279-0.244-1.768-0.732l-21.038-21.038c-0.469-0.469-0.732-1.105-0.732-1.768
				s0.264-1.299,0.732-1.768c12.187-12.178,28.36-18.884,45.544-18.884c0.027,0,0.058,0,0.087,0.001
				c1.347,0.038,2.428,1.142,2.428,2.499v29.765c0,1.381-1.119,2.5-2.5,2.5c-7.927,0-15.38,3.087-20.985,8.692
				C56.026,148.339,55.387,148.583,54.747,148.583z M37.281,125.083L54.81,142.61c5.673-4.923,12.697-7.833,20.19-8.363v-24.803
				C60.91,110.022,47.682,115.506,37.281,125.083z"/>
		</g>
		<g>
			<path d="M77.501,233.289c-17.237,0-33.425-6.694-45.58-18.851c-12.162-12.162-18.857-28.357-18.851-45.602
				c0.001-1.38,1.12-2.499,2.5-2.499h29.751c1.381,0,2.5,1.119,2.5,2.5c0,16.365,13.314,29.679,29.68,29.679
				s29.679-13.314,29.679-29.679s-13.313-29.679-29.679-29.679c-1.381,0-2.5-1.119-2.5-2.5L75,106.894
				c0-0.663,0.264-1.303,0.732-1.772s1.104-0.736,1.768-0.736c17.209,0,33.396,6.71,45.58,18.894l0,0l0,0
				c12.156,12.156,18.851,28.343,18.851,45.579c0,17.237-6.694,33.424-18.851,45.58C110.925,226.594,94.738,233.289,77.501,233.289z
				 M18.12,171.337c0.607,14.969,6.708,28.938,17.336,39.566c11.212,11.212,26.144,17.387,42.045,17.386
				c15.901,0,30.833-6.175,42.044-17.386c11.212-11.212,17.386-26.143,17.386-42.044c0-15.901-6.174-30.832-17.386-42.044l0,0
				C108.897,116.167,94.937,110.051,80,109.437v24.812c17.96,1.285,32.18,16.308,32.18,34.589c0,19.122-15.557,34.679-34.679,34.679
				c-18.282,0-33.306-14.219-34.591-32.179L18.12,171.337z"/>
		</g>
		<g>
			<path d="M77.403,233.287c-0.001,0-0.003,0-0.004,0c-17.2-0.026-33.352-6.72-45.479-18.849
				c-12.162-12.162-18.857-28.357-18.851-45.602c0.001-1.38,1.12-2.499,2.5-2.499h29.751c1.381,0,2.5,1.12,2.5,2.5
				c0,16.325,13.283,29.638,29.611,29.675c1.379,0.003,2.495,1.123,2.494,2.502l-0.023,29.774c-0.001,0.664-0.265,1.299-0.734,1.768
				C78.7,233.024,78.065,233.287,77.403,233.287z M18.12,171.337c0.607,14.969,6.708,28.938,17.336,39.566
				c10.596,10.596,24.522,16.694,39.449,17.329l0.02-24.813c-17.092-1.264-30.788-14.989-32.014-32.081L18.12,171.337z"/>
		</g>
		<g>
			<g>
				<path fill="#70D6F9" d="M94.827,167.771l-15.845,15.845c-2.343,2.343-6.142,2.343-8.485,0l-10.424-10.424
					c-2.343-2.343-2.343-6.142,0-8.485s6.142-2.343,8.485,0l6.182,6.182l11.603-11.603c2.343-2.343,6.142-2.343,8.485,0
					C97.17,161.629,97.17,165.428,94.827,167.771z"/>
			</g>
		</g>
		<g>
			<g>
				<path d="M74.738,187.87c-2.176,0-4.353-0.829-6.01-2.486L58.305,174.96c-1.605-1.605-2.49-3.74-2.49-6.01
					c0-2.271,0.885-4.405,2.49-6.011c1.604-1.605,3.739-2.489,6.01-2.489s4.405,0.884,6.011,2.489l4.414,4.414l9.835-9.834
					c1.604-1.605,3.739-2.49,6.01-2.49s4.405,0.884,6.011,2.489c3.314,3.314,3.314,8.707,0,12.021l-15.846,15.846
					C79.092,187.042,76.915,187.87,74.738,187.87z M64.314,165.45c-0.935,0-1.813,0.364-2.475,1.025
					c-0.661,0.662-1.025,1.54-1.025,2.475c0,0.935,0.364,1.813,1.025,2.475l10.424,10.425c1.367,1.365,3.587,1.364,4.95,0
					l15.846-15.846c1.364-1.365,1.364-3.585,0-4.95c-1.32-1.32-3.626-1.322-4.95,0l-11.603,11.603c-0.977,0.977-2.559,0.977-3.535,0
					l-6.182-6.182C66.129,165.814,65.25,165.45,64.314,165.45z"/>
			</g>
		</g>
		<g>
			<path fill="#F5C84C" d="M145.013,239.988c-3.1-0.6-5.6-3-6.2-6.1c0-0.1-0.3-0.1-0.3,0c-0.6,3.1-3.1,5.5-6.2,6.1
				c-0.1,0-0.1,0.2,0,0.3c3.1,0.6,5.6,3,6.2,6.1c0,0.1,0.3,0.1,0.3,0c0.6-3.1,3.1-5.5,6.2-6.1
				C145.113,240.188,145.113,239.988,145.013,239.988z"/>
		</g>
		<g>
			<path fill="#70D6F9" d="M205.013,215.288h2.3v2.3c0,1.8,1.4,3.2,3.2,3.2c1.7,0,3.2-1.4,3.2-3.1v-0.1v-2.3h2.3
				c1.8,0,3.2-1.4,3.2-3.2c0-1.7-1.4-3.2-3.1-3.2h-0.1h-2.3v-2.3c0-1.8-1.4-3.2-3.2-3.2c-1.7,0-3.2,1.4-3.2,3.1v0.1v2.3h-2.3
				c-1.8,0-3.2,1.4-3.2,3.2C201.713,213.788,203.113,215.288,205.013,215.288C204.913,215.288,204.913,215.288,205.013,215.288z"/>
		</g>
		<g>
			<circle fill="#FC657E" cx="3.4" cy="111.688" r="3.4"/>
		</g>
		<g>
			<circle fill="#87D147" cx="252.6" cy="186.188" r="3.4"/>
		</g>
		<g>
			<path fill="#F5C84C" d="M26.813,71.987c4.5-0.8,8-4.3,8.9-8.7c0-0.2,0.4-0.2,0.4,0c0.9,4.4,4.4,7.9,8.9,8.7c0.2,0,0.2,0.3,0,0.4
				c-4.5,0.8-8,4.3-8.9,8.7c0,0.2-0.4,0.2-0.4,0c-0.9-4.4-4.4-7.9-8.9-8.7C26.613,72.287,26.613,71.987,26.813,71.987z"/>
		</g>
	</g>
</g>
<g id="Layer_41">
</g>
<g id="Layer_42">
</g>
<g id="Layer_43">
</g>
<g id="Layer_44">
</g>
<g id="Layer_45">
</g>
<g id="Layer_46">
</g>
<g id="Layer_47">
</g>
<g id="Layer_48">
</g>
<g id="Layer_49">
</g>
<g id="Layer_50">
</g>
<g id="Layer_51">
</g>
<g id="Layer_52">
</g>
<g id="Layer_53">
</g>
<g id="Layer_54">
</g>
<g id="Layer_55">
</g>
<g id="Layer_56">
</g>
<g id="Layer_57">
</g>
<g id="Layer_58">
</g>
<g id="Layer_59">
</g>
<g id="Layer_60">
</g>
<g id="Layer_61">
</g>
<g id="Layer_62">
</g>
<g id="Layer_63">
</g>
<g id="Layer_64">
</g>
<g id="Layer_65">
</g>
<g id="Layer_66">
</g>
<g id="Layer_67">
</g>
<g id="Layer_68">
</g>
<g id="Layer_69">
</g>
<g id="Layer_70">
</g>
<g id="Layer_71">
</g>
<g id="Layer_72">
</g>
<g id="Layer_73">
</g>
<g id="Layer_74">
</g>
<g id="Layer_75">
</g>
</svg>
