<?xml version="1.0" encoding="utf-8"?>
<!-- Generator: Adobe Illustrator 19.2.1, SVG Export Plug-In . SVG Version: 6.00 Build 0)  -->
<svg version="1.1" id="layer" xmlns="http://www.w3.org/2000/svg" xmlns:xlink="http://www.w3.org/1999/xlink" x="0px" y="0px"
	 viewBox="0 0 652 652" style="enable-background:new 0 0 652 652;" xml:space="preserve">
<style type="text/css">
	.st0{fill:#010101;}
	.st1{fill:#E45FC0;}
	.st2{fill:#00E1E0;}
	.st3{fill:#455BE6;}
	.st4{fill:#27E7A2;}
</style>
<path class="st0" d="M260.7,321.2l-18-24c-1.5-1.8-0.3-3.9,1.8-3.9h9.3c1.2,0,2.4,0.3,3.3,1.5l11.4,16.2l11.7-16.2
	c0.6-0.9,1.8-1.5,3.3-1.5h9.3c2.4,0,3,1.8,1.8,3.6l-18,24l18,25.5c1.2,1.8,0.6,3.6-1.8,3.6h-9c-1.2,0-2.4-0.6-3-1.8l-12.3-17.4
	l-12.9,18.3c-0.3,0.6-1.2,1.2-2.4,1.2h-9.6c-2.4,0-3-1.8-1.8-3.6L260.7,321.2z M334,292.1c14.7,0,26.1,11.1,26.1,26.1l-0.3,3.9
	c0,1.5-1.2,2.4-2.7,2.4h-38.4c0.6,8.5,7.7,15.2,16.2,15.3c4.5-0.2,8.9-1.6,12.6-4.2c1.8-0.9,2.7-1.5,3.9,0l3.9,5.4
	c0.9,1.2,1.5,2.4-0.3,3.6c-5.9,4.8-13.4,7.4-21,7.2c-17.1,0-28.5-13.5-28.5-29.7C305.5,305.6,316.9,292.1,334,292.1L334,292.1z
	 M346.9,315.5c-0.3-6.9-6-12.6-12.9-12.6c-7.4-0.2-13.6,5.3-14.4,12.6H346.9z M373.7,296c0-1.5,1.2-2.7,2.7-2.7h4.2
	c1.2,0,2.1,0.6,2.4,1.8l1.8,4.8c0.9-1.2,8.4-7.8,19.8-7.8c17.4,0,23.7,12.3,23.7,27v28.5c0,1.5-1.2,2.7-2.7,2.7h-8.1
	c-1.5,0-2.7-1.2-2.7-2.7v-29.1c0-9-4.5-14.1-11.7-14.1c-9,0-15,6.6-15.6,8.4v34.5c0,1.8-0.9,2.7-3.3,2.7h-7.5
	c-1.5,0-2.7-1.2-2.7-2.7V296H373.7z M495,296c0-1.5,1.2-2.7,2.7-2.7h4.2c0.9,0,2.1,0.9,2.4,2.1l1.5,4.8c0.9-1.5,6.3-8.1,16.5-8.1
	c5.4,0,12,1.5,10.5,5.1l-3.3,6.9c-0.6,1.5-2.1,1.8-3.3,1.2c-0.9-0.3-3-0.9-4.8-0.9c-8.1,0-12.3,6-12.9,6.9v36c0,2.4-1.5,2.7-3.9,2.7
	h-6.9c-1.5,0-2.7-1.2-2.7-2.7V296z M609.4,271.1c0-1.5,1.2-2.7,2.7-2.7h8.1c1.5,0,2.7,1.2,2.7,2.7v76.3c0,1.5-1.2,2.7-2.7,2.7h-8.1
	c-1.5,0-2.7-1.2-2.7-2.7V271.1z M479.1,292.1h-12.3v-21c0-1.5-1.2-2.7-2.7-2.7H456c-1.5,0-2.7,1.2-2.7,2.7v21h-12.3
	c-1.5,0-2.7,1.2-2.7,2.7v6.3c0,1.5,1.2,2.7,2.7,2.7h12.3v43.8c0,1.5,1.2,2.7,2.7,2.7h8.1c1.5,0,2.7-1.2,2.7-2.7v-44.1h12.3
	c1.5,0,2.7-1.2,2.7-2.7v-6.3C481.8,293.3,480.6,292.1,479.1,292.1L479.1,292.1z M588.4,293.3h-6.6c-1.5,0-2.7,1.2-2.7,2.7v0.9
	c-4.6-3.4-10.2-5.2-15.9-5.1c-16.1,0.3-29,13.6-28.8,29.7c0,16.2,12.9,30,28.8,30c6,0,11.4-1.8,15.9-5.1v0.9c0,1.5,1.2,2.7,2.7,2.7
	h6.6c1.5,0,2.7-1.2,2.7-2.7V296C591.1,294.8,589.6,293.3,588.4,293.3L588.4,293.3z M563.2,339.2c-9,0-15.9-7.8-15.9-17.7
	c0-9.6,7.2-17.4,15.9-17.4c8.4,0,15,6.9,15.9,15.3v3.9C578.2,332.3,571.3,339.2,563.2,339.2L563.2,339.2z M563.2,339.2"/>
<path class="st1" d="M102.2,291.8h-0.3c-15.6,0-29.1-11.7-39.3-21.6l-9.9-9.9c-4-4-4-10.4,0-14.4c4-4,10.4-4,14.4,0l9.9,9.9
	c6.9,6.9,16.8,15.9,24.9,15.9h0.6c8.1,0,18-9,24.9-15.9l9.9-9.9c4-4,10.4-4,14.4,0c4,4,4,10.4,0,14.4l-9.9,9.9
	C131.3,280.4,117.5,291.8,102.2,291.8L102.2,291.8z M102.2,291.8"/>
<path class="st2" d="M144.2,400.5c-2.7,0-5.1-0.9-7.2-3l-9.9-9.9c-6.9-6.9-16.8-15.9-24.9-15.9h-0.6c-8.1,0-18,9-24.9,15.9l-9.9,9.9
	c-4,4-10.4,4-14.4,0c-4-4-4-10.4,0-14.4l9.9-9.9c10.2-10.2,23.7-21.9,39.3-21.6h0.3c15.6,0,29.1,11.7,39.3,21.6l9.9,9.9
	c4,4,4,10.4,0,14.4C149.3,399.6,146.9,400.5,144.2,400.5L144.2,400.5z M144.2,400.5"/>
<path class="st3" d="M33.1,374.1c-2.7,0-5.1-0.9-7.2-3c-4-4-4-10.4,0-14.4l9.9-9.9c6.9-6.9,15.9-16.8,15.9-24.9v-0.3
	c0-8.1-9-18.3-15.9-24.9l-9.9-9.9c-4-4-4-10.4,0-14.4c4-4,10.4-4,14.4,0l9.9,9.9c10.2,10.2,21.9,23.7,21.6,39.3
	c0,15.6-11.7,29.1-21.6,39.3l-9.9,10.2C38.5,373.2,35.8,374.1,33.1,374.1L33.1,374.1z M33.1,374.1"/>
<path class="st4" d="M170.7,374.1c-2.7,0-5.1-0.9-7.2-3l-9.9-9.9c-10.2-10.2-21.9-23.7-21.6-39.3c0-15.6,11.7-29.1,21.6-39.3
	l9.9-9.9c4-4,10.4-4,14.4,0c4,4,4,10.4,0,14.4l-9.9,9.9c-6.9,6.9-15.9,16.8-15.9,24.9v0.3c0,8.1,9,18.3,15.9,24.9l9.9,9.9
	c4,4,4,10.4,0,14.4C175.8,373.2,173.4,374.1,170.7,374.1L170.7,374.1z M170.7,374.1"/>
</svg>
