<svg id="Capa_1" enable-background="new 0 0 512.002 512.002" viewBox="0 0 512.002 512.002" xmlns="http://www.w3.org/2000/svg"><g><path d="m211.005 40h-.007c-5.523 0-9.997 4.478-9.997 10s4.481 10 10.004 10 10-4.478 10-10-4.477-10-10-10z"/><path d="m481.001 312.002h-80v-262.002c0-5.522-4.477-10-10-10h-131.004c-4.646-22.794-24.85-40-48.996-40s-44.349 17.206-48.996 40h-131.004c-5.523 0-10 4.478-10 10v420c0 5.522 4.477 10 10 10h260v22.002c0 5.522 4.477 10 10 10h180c5.523 0 10-4.478 10-10v-180c0-5.523-4.477-10-10-10zm-180 0c-5.523 0-10 4.478-10 10v92.998h-205.001v-310h20v5.001c0 5.522 4.477 10 10 10h190c5.523 0 10-4.478 10-10v-5.001h20v207.002zm75 20h30v46.667l-10.294-5.49c-2.941-1.568-6.471-1.568-9.412 0l-10.294 5.49zm5-272.002v252.002h-25v-217.002c0-5.522-4.477-10-10-10h-30v-25zm-255 0h45c5.523 0 10-4.478 10-10 0-16.542 13.458-30 30-30s30 13.458 30 30c0 5.522 4.477 10 10 10h45v40.001h-170zm-85 400v-400h65v25h-30.001c-5.523 0-10 4.478-10 10v330c0 5.522 4.477 10 10 10h215v25zm430 32.002h-160v-160h45v63.334c0 3.513 1.843 6.768 4.855 8.575 3.013 1.807 6.752 1.902 9.851.248l20.294-10.824 20.294 10.824c1.473.786 3.09 1.177 4.706 1.177 1.784 0 3.565-.477 5.146-1.425 3.012-1.808 4.855-5.062 4.855-8.575v-63.334h45v160z"/><path d="m153.93 159.931-22.929 22.93-7.929-7.929c-3.905-3.904-10.237-3.904-14.142 0-3.905 3.906-3.905 10.237 0 14.143l15 14.999c1.953 1.952 4.512 2.929 7.071 2.929s5.119-.977 7.071-2.929l30-30c3.905-3.905 3.905-10.237 0-14.143-3.905-3.905-10.237-3.905-14.142 0z"/><path d="m306.001 172.003h-101.497c-5.523 0-10 4.478-10 10s4.477 10 10 10h101.497c5.523 0 10-4.478 10-10s-4.477-10-10-10z"/><path d="m153.93 239.931-22.929 22.929-7.929-7.929c-3.905-3.904-10.237-3.904-14.143 0-3.905 3.905-3.905 10.237 0 14.143l15 15c1.953 1.952 4.512 2.929 7.071 2.929s5.119-.977 7.071-2.929l30-30c3.905-3.905 3.905-10.237 0-14.143-3.904-3.905-10.236-3.905-14.141 0z"/><path d="m306.001 252.002h-101.497c-5.523 0-10 4.478-10 10s4.477 10 10 10h101.497c5.523 0 10-4.478 10-10s-4.477-10-10-10z"/><path d="m153.93 322.431-22.929 22.93-7.929-7.929c-3.905-3.904-10.237-3.904-14.142 0-3.905 3.906-3.905 10.237 0 14.143l15 14.999c1.953 1.952 4.512 2.929 7.071 2.929s5.119-.977 7.071-2.929l30-30c3.905-3.905 3.905-10.237 0-14.143-3.905-3.905-10.237-3.905-14.142 0z"/><path d="m256 312.002h-51.496c-5.523 0-10 4.478-10 10s4.477 10 10 10h51.496c5.523 0 10-4.478 10-10s-4.477-10-10-10z"/><path d="m256 357.003h-51.496c-5.523 0-10 4.478-10 10s4.477 10 10 10h51.496c5.523 0 10-4.478 10-10s-4.477-10-10-10z"/></g><g/><g/><g/><g/><g/><g/><g/><g/><g/><g/><g/><g/><g/><g/><g/></svg>