<svg fill="#0000F0" xmlns="http://www.w3.org/2000/svg"  viewBox="0 0 24 24" width="24px" height="24px"><path d="M 19 3 L 5 3 C 3.898438 3 3 3.898438 3 5 L 3 19 C 3 20.101563 3.898438 21 5 21 L 19 21 C 20.101563 21 21 20.101563 21 19 L 21 5 C 21 3.898438 20.101563 3 19 3 Z M 15.300781 16.601563 L 8.898438 16.601563 L 8.898438 15.300781 C 11.601563 12.300781 13.101563 11.199219 13.101563 10 C 13.101563 9.601563 12.898438 8.699219 11.898438 8.699219 C 10.601563 8.699219 10.601563 10 10.601563 10.300781 L 8.699219 10.300781 C 8.699219 9.398438 9.398438 7.300781 11.898438 7.300781 C 14.398438 7.300781 14.898438 8.800781 14.898438 9.898438 C 14.898438 11.398438 13.800781 12.601563 11.199219 15.199219 L 15.199219 15.199219 L 15.199219 16.601563 Z"/></svg>