<svg fill="#0000F0" xmlns="http://www.w3.org/2000/svg"  viewBox="0 0 24 24" width="24px" height="24px"><path d="M 19 3 L 5 3 C 3.898438 3 3 3.898438 3 5 L 3 19 C 3 20.101563 3.898438 21 5 21 L 19 21 C 20.101563 21 21 20.101563 21 19 L 21 5 C 21 3.898438 20.101563 3 19 3 Z M 11.898438 16.699219 C 9.5 16.699219 8.699219 15 8.800781 14 L 10.601563 14 C 10.5 14.300781 10.800781 15.199219 12 15.199219 C 13.300781 15.199219 13.398438 14.101563 13.398438 13.898438 C 13.398438 12.5 12.101563 12.5 11.898438 12.5 L 10.898438 12.5 L 10.898438 11.101563 L 11.898438 11.101563 C 12.398438 11.101563 13.300781 11 13.300781 9.800781 C 13.300781 8.699219 12.300781 8.601563 12 8.601563 C 11 8.601563 10.800781 9.398438 10.800781 9.601563 L 8.898438 9.601563 C 8.898438 7.800781 10.699219 7.101563 11.898438 7.101563 C 14.699219 7.101563 15 9 15 9.699219 C 15 11 13.800781 11.601563 13.601563 11.699219 C 14.101563 11.898438 15.101563 12.398438 15.101563 13.898438 C 15.199219 16.101563 13.300781 16.699219 11.898438 16.699219 Z"/></svg>