<svg version="1.1" id="Layer_1" xmlns:x="ns_extend;" xmlns:i="ns_ai;" xmlns:graph="ns_graphs;" xmlns="http://www.w3.org/2000/svg" xmlns:xlink="http://www.w3.org/1999/xlink" x="0px" y="0px" viewBox="0 0 477 98.9" style="enable-background:new 0 0 477 98.9;" xml:space="preserve">
 <style type="text/css">
  .st0{fill:#003824;}
 </style>
 <metadata>
  <sfw xmlns="ns_sfw;">
   <slices>
   </slices>
   <sliceSourceBounds bottomLeftOrigin="true" height="98.9" width="477" x="5.6" y="3.1">
   </sliceSourceBounds>
  </sfw>
 </metadata>
 <g>
  <path class="st0" d="M54.2,2.8h-25C11.8,2.8,0,14.6,0,32v62.6c0,1.8,1,2.8,2.8,2.8h13.9c1.8,0,2.8-1,2.8-2.8v-26h34.8
		c1.8,0,2.8-1,2.8-2.8V52.5c0-1.8-1-2.8-2.8-2.8H19.4V31.5c0-5.8,3.9-9.7,9.7-9.7h25.1c1.8,0,2.8-1,2.8-2.8V5.6
		C57,3.8,56,2.8,54.2,2.8z">
  </path>
  <g>
   <path class="st0" d="M102.1,19.5c-23,0-39.5,17.4-39.5,39.7s16.6,39.7,39.5,39.7s39.5-17.4,39.5-39.7S125.1,19.5,102.1,19.5z
			 M102.1,80.2c-11.8,0-20.5-8.8-20.5-21s8.6-21,20.5-21s20.5,8.8,20.5,21S114,80.2,102.1,80.2z">
   </path>
   <path class="st0" d="M236.3,20.9h-23.7V2.8c0-1.8-1-2.8-2.8-2.8h-13.9c-1.8,0-2.8,1-2.8,2.8v18.1h-16.7
			c-17.3,0-29.2,11.8-29.2,29.2v44.5c0,1.8,1,2.8,2.8,2.8h13.9c1.8,0,2.8-1,2.8-2.8V49.5c0-5.8,3.9-9.7,9.7-9.7h16.7v28.4
			c0,17.4,11.8,29.2,29.2,29.2h13.9c1.8,0,2.8-1,2.8-2.8V81.3c0-1.8-1-2.8-2.8-2.8h-13.8c-5.8,0-9.7-3.9-9.7-9.7v-29h23.7
			c1.8,0,2.8-1,2.8-2.8V23.7C239.1,21.8,238.1,20.9,236.3,20.9z">
   </path>
   <path class="st0" d="M279.5,19.5c-21,0-34.8,13.5-34.8,34.1v41.1c0,1.8,1,2.8,2.8,2.8h13.9c1.8,0,2.8-1,2.8-2.8V53.6
			c0-9.3,6.1-15.3,15.3-15.2c9.2-0.1,15.3,5.8,15.3,15.2v41.1c0,1.8,1,2.8,2.8,2.8h13.9c1.8,0,2.8-1,2.8-2.8V53.6
			C314.3,33,300.5,19.5,279.5,19.5z">
   </path>
   <path class="st0" d="M359.4,19.5c-23,0-39.5,17.4-39.5,39.7s16.6,39.7,39.5,39.7c23,0,39.5-17.4,39.5-39.7S382.3,19.5,359.4,19.5z
			 M359.4,80.2c-11.8,0-20.5-8.8-20.5-21s8.6-21,20.5-21c11.8,0,20.5,8.8,20.5,21S371.2,80.2,359.4,80.2z">
   </path>
   <path class="st0" d="M451.4,59L476,34.4c1.3-1.3,1.3-2.6,0-3.9l-9.7-9.7c-1.3-1.3-2.6-1.3-3.9,0l-24.6,24.6l-24.6-24.6
			c-1.3-1.3-2.6-1.3-3.9,0l-9.7,9.7c-1.3,1.3-1.3,2.6,0,3.9L424.2,59l-24.8,24.6c-1.3,1.3-1.3,2.6,0,3.9l9.7,9.7
			c1.3,1.3,2.6,1.3,3.9,0l24.6-24.6l24.6,24.6c1.3,1.3,2.6,1.3,3.9,0l9.7-9.7c1.3-1.3,1.3-2.6,0-3.9L451.4,59z">
   </path>
  </g>
 </g>
</svg>