<svg width="100" height="32" viewBox="0 0 100 32" fill="none" xmlns="http://www.w3.org/2000/svg">
<g clip-path="url(#clip0_3658_234)">
<path d="M16.5443 5.74463H10.8115L4.10164 13.1869V5.74463H0V22.8271H4.10246V19.5019L7.06311 16.2077L11.3557 22.8573H16.4902L10.0787 12.9126L16.5443 5.74463Z" fill="#092332"/>
<path d="M28.5369 8.27622C27.5041 6.7512 25.7926 5.74365 22.9672 5.74365C16.5295 5.74365 15.85 11.8145 15.85 14.316C15.85 16.6035 16.5565 22.8573 22.9401 22.8573C25.8196 22.8573 27.5582 21.9722 28.591 20.4783H28.727V22.8573H32.8557V5.74457H28.7262V8.27622H28.5369ZM24.1631 18.8911C20.2237 18.8911 19.7893 15.5357 19.7893 14.316C19.7893 12.9738 20.1967 9.73999 24.1631 9.73999C27.7213 9.73999 28.4549 11.9983 28.4549 14.316C28.4549 16.9089 27.7213 18.8911 24.1631 18.8911ZM40.5475 9.70982H45.4918V5.80582H34.3803V9.70982H36.391V16.5734C36.391 19.0447 36.391 22.8573 40.5467 22.8573C44.6762 22.8573 45.4918 22.5519 45.4918 22.5519V18.0371C41.5246 18.2813 40.5475 18.6168 40.5475 16.1464V9.70982ZM58.9918 8.27622C57.959 6.7512 56.2475 5.74365 53.4229 5.74365C46.9844 5.74365 46.3049 11.8145 46.3049 14.316C46.3049 16.6035 47.0115 22.8573 53.3951 22.8573C56.2754 22.8573 58.0139 21.9722 59.0459 20.4783H59.1819V22.8573H63.3114V5.74457H59.1819V8.27622H58.9918ZM54.618 18.8911C50.6787 18.8911 50.2442 15.5357 50.2442 14.316C50.2442 12.9738 50.6516 9.73999 54.618 9.73999C58.1762 9.73999 58.9098 11.9983 58.9098 14.316C58.9098 16.9089 58.1762 18.8911 54.618 18.8911ZM74.7934 5.74457C72.0492 5.74457 70.6639 6.75028 69.686 8.27622H69.4959V5.74365H65.3664V22.8573H69.4959V14.6214C69.4959 12.3027 70.0123 9.73999 73.5975 9.73999C77.5369 9.73999 77.2926 12.9738 77.2926 14.316V22.8573H81.3934V14.316C81.3934 11.8145 81.2311 5.74457 74.7934 5.74457ZM95.6803 8.27622C94.6483 6.7512 92.9369 5.74365 90.1114 5.74365C83.6729 5.74365 82.9942 11.8145 82.9942 14.316C82.9942 16.6035 83.7 22.8573 90.0844 22.8573C92.9639 22.8573 94.7024 21.9722 95.7352 20.4783H95.8705V22.8573H100V5.74457H95.8705V8.27622H95.6803ZM91.3065 18.8911C87.368 18.8911 86.9328 15.5357 86.9328 14.316C86.9328 12.9738 87.341 9.73999 91.3065 9.73999C94.8655 9.73999 95.5992 11.9983 95.5992 14.316C95.5992 16.9089 94.8655 18.8911 91.3065 18.8911Z" fill="#092332"/>
<path d="M36.4082 0V5.95749C36.4082 5.95749 38.1394 5.37874 39.4582 3.57486C40.7787 1.77006 40.65 0 40.65 0H36.4082Z" fill="#092332"/>
</g>
<defs>
<clipPath id="clip0_3658_234">
<rect width="100" height="32" fill="white"/>
</clipPath>
</defs>
</svg>
