<svg width="400" height="101" viewBox="0 0 400 101" fill="none" xmlns="http://www.w3.org/2000/svg">
<path d="M0.7 79V1.99999H14.56V79H0.7ZM55.8788 80.54C50.4521 80.54 45.5754 79.44 41.2488 77.24C36.9221 75.04 33.5121 71.85 31.0188 67.67C28.5254 63.49 27.2788 58.4667 27.2788 52.6V50.84C27.2788 44.9733 28.5254 39.95 31.0188 35.77C33.5121 31.59 36.9221 28.4 41.2488 26.2C45.5754 24 50.4521 22.9 55.8788 22.9C61.3054 22.9 66.1821 24 70.5088 26.2C74.8354 28.4 78.2454 31.59 80.7388 35.77C83.2321 39.95 84.4788 44.9733 84.4788 50.84V52.6C84.4788 58.4667 83.2321 63.49 80.7388 67.67C78.2454 71.85 74.8354 75.04 70.5088 77.24C66.1821 79.44 61.3054 80.54 55.8788 80.54ZM55.8788 68.22C60.1321 68.22 63.6521 66.8633 66.4388 64.15C69.2254 61.3633 70.6188 57.4033 70.6188 52.27V51.17C70.6188 46.0367 69.2254 42.1133 66.4388 39.4C63.7254 36.6133 60.2054 35.22 55.8788 35.22C51.6254 35.22 48.1054 36.6133 45.3188 39.4C42.5321 42.1133 41.1388 46.0367 41.1388 51.17V52.27C41.1388 57.4033 42.5321 61.3633 45.3188 64.15C48.1054 66.8633 51.6254 68.22 55.8788 68.22ZM94.6323 51.94V50.18C94.6323 44.46 95.7689 39.5833 98.0423 35.55C100.316 31.4433 103.322 28.3267 107.062 26.2C110.876 24 115.019 22.9 119.492 22.9C124.479 22.9 128.256 23.78 130.822 25.54C133.389 27.3 135.259 29.1333 136.432 31.04H138.412V24.44H152.052V88.68C152.052 92.42 150.952 95.39 148.752 97.59C146.552 99.8633 143.619 101 139.952 101H103.432V88.9H135.112C137.166 88.9 138.192 87.8 138.192 85.6V71.41H136.212C135.479 72.5833 134.452 73.7933 133.132 75.04C131.812 76.2133 130.052 77.2033 127.852 78.01C125.652 78.8167 122.866 79.22 119.492 79.22C115.019 79.22 110.876 78.1567 107.062 76.03C103.322 73.83 100.316 70.7133 98.0423 66.68C95.7689 62.5733 94.6323 57.66 94.6323 51.94ZM123.452 67.12C127.706 67.12 131.262 65.7633 134.122 63.05C136.982 60.3367 138.412 56.5233 138.412 51.61V50.51C138.412 45.5233 136.982 41.71 134.122 39.07C131.336 36.3567 127.779 35 123.452 35C119.199 35 115.642 36.3567 112.782 39.07C109.922 41.71 108.492 45.5233 108.492 50.51V51.61C108.492 56.5233 109.922 60.3367 112.782 63.05C115.642 65.7633 119.199 67.12 123.452 67.12ZM167.419 101V24.44H181.059V31.04H183.039C184.285 28.9133 186.229 27.0433 188.869 25.43C191.509 23.7433 195.285 22.9 200.199 22.9C204.599 22.9 208.669 24 212.409 26.2C216.149 28.3267 219.155 31.48 221.429 35.66C223.702 39.84 224.839 44.9 224.839 50.84V52.6C224.839 58.54 223.702 63.6 221.429 67.78C219.155 71.96 216.149 75.15 212.409 77.35C208.669 79.4767 204.599 80.54 200.199 80.54C196.899 80.54 194.112 80.1367 191.839 79.33C189.639 78.5967 187.842 77.6433 186.449 76.47C185.129 75.2233 184.065 73.9767 183.259 72.73H181.279V101H167.419ZM196.019 68.44C200.345 68.44 203.902 67.0833 206.689 64.37C209.549 61.5833 210.979 57.55 210.979 52.27V51.17C210.979 45.89 209.549 41.8933 206.689 39.18C203.829 36.3933 200.272 35 196.019 35C191.765 35 188.209 36.3933 185.349 39.18C182.489 41.8933 181.059 45.89 181.059 51.17V52.27C181.059 57.55 182.489 61.5833 185.349 64.37C188.209 67.0833 191.765 68.44 196.019 68.44ZM237.565 79V24.44H251.425V79H237.565ZM244.495 18.06C242.002 18.06 239.875 17.2533 238.115 15.64C236.429 14.0267 235.585 11.9 235.585 9.26C235.585 6.62 236.429 4.49333 238.115 2.88C239.875 1.26666 242.002 0.459995 244.495 0.459995C247.062 0.459995 249.189 1.26666 250.875 2.88C252.562 4.49333 253.405 6.62 253.405 9.26C253.405 11.9 252.562 14.0267 250.875 15.64C249.189 17.2533 247.062 18.06 244.495 18.06ZM266.784 79V1.99999H280.644V79H266.784ZM321.963 80.54C316.536 80.54 311.659 79.44 307.333 77.24C303.006 75.04 299.596 71.85 297.103 67.67C294.609 63.49 293.363 58.4667 293.363 52.6V50.84C293.363 44.9733 294.609 39.95 297.103 35.77C299.596 31.59 303.006 28.4 307.333 26.2C311.659 24 316.536 22.9 321.963 22.9C327.389 22.9 332.266 24 336.593 26.2C340.919 28.4 344.329 31.59 346.823 35.77C349.316 39.95 350.563 44.9733 350.563 50.84V52.6C350.563 58.4667 349.316 63.49 346.823 67.67C344.329 71.85 340.919 75.04 336.593 77.24C332.266 79.44 327.389 80.54 321.963 80.54ZM321.963 68.22C326.216 68.22 329.736 66.8633 332.523 64.15C335.309 61.3633 336.703 57.4033 336.703 52.27V51.17C336.703 46.0367 335.309 42.1133 332.523 39.4C329.809 36.6133 326.289 35.22 321.963 35.22C317.709 35.22 314.189 36.6133 311.403 39.4C308.616 42.1133 307.223 46.0367 307.223 51.17V52.27C307.223 57.4033 308.616 61.3633 311.403 64.15C314.189 66.8633 317.709 68.22 321.963 68.22ZM382.43 79C378.837 79 375.903 77.9 373.63 75.7C371.43 73.4267 370.33 70.42 370.33 66.68V35.88H356.69V24.44H370.33V7.5H384.19V24.44H399.15V35.88H384.19V64.26C384.19 66.46 385.217 67.56 387.27 67.56H397.83V79H382.43Z" fill="#0000F0"/>
</svg>
