<svg width="352" height="370" viewBox="0 0 352 370" fill="none" xmlns="http://www.w3.org/2000/svg">
<path fill-rule="evenodd" clip-rule="evenodd" d="M318.493 332.844C326.905 332.844 333.723 339.663 333.723 348.072C333.723 356.482 326.905 363.3 318.493 363.3C310.083 363.3 303.265 356.482 303.265 348.072C303.265 339.662 310.083 332.844 318.493 332.844Z" fill="#BBC0D6"/>
<path d="M120.373 363.3C128.783 363.3 135.601 356.482 135.601 348.072C135.601 339.662 128.783 332.844 120.373 332.844C111.963 332.844 105.145 339.662 105.145 348.072C105.145 356.482 111.963 363.3 120.373 363.3Z" fill="#BBC0D6"/>
<path fill-rule="evenodd" clip-rule="evenodd" d="M110.939 246.478L119.087 283.514H326.524C332.567 283.514 337.466 288.413 337.466 294.457C337.466 297.479 336.242 300.214 334.262 302.194C332.282 304.176 329.546 305.401 326.524 305.401H117.668C108.85 305.401 101.202 299.31 99.2259 290.715L50.2399 68.0735H17.3839C11.3379 68.0735 6.43994 63.1755 6.43994 57.1315C6.43994 54.1095 7.66394 51.3735 9.64394 49.3935C11.6239 47.4135 14.3599 46.1875 17.3839 46.1875H51.6579C60.4759 46.1875 68.1239 52.2785 70.0969 60.8705L76.9059 91.8135L110.939 246.478Z" fill="#BBC0D6"/>
<path d="M226.24 122.275C243.075 118.3 253.5 101.43 249.525 84.5948C245.55 67.7597 228.679 57.3348 211.844 61.31C195.009 65.2852 184.584 82.1553 188.56 98.9904C192.535 115.825 209.405 126.25 226.24 122.275Z" fill="#DEFAE7"/>
<path fill-rule="evenodd" clip-rule="evenodd" d="M304.681 91.8117V104.254H285.723C283.969 113.727 280.244 122.508 274.99 130.157L288.397 143.566L270.803 161.163L257.394 147.754C249.745 153.008 240.963 156.733 231.491 158.489V177.444H206.608V158.489C197.135 156.732 188.356 153.007 180.705 147.754L167.296 161.163L149.702 143.566L163.111 130.157C157.857 122.508 154.132 113.727 152.376 104.254H133.418V91.8117V79.3697H152.376C154.133 69.8967 157.858 61.1177 163.111 53.4667L149.702 40.0577L167.296 22.4637L180.705 35.8727C188.356 30.6187 197.135 26.8947 206.608 25.1377V6.17969H231.491V25.1377C240.964 26.8947 249.745 30.6197 257.394 35.8727L270.803 22.4637L288.397 40.0577L274.988 53.4667C280.242 61.1177 283.969 69.8977 285.723 79.3697H304.681V91.8117ZM250.371 91.8117C250.371 74.5127 236.348 60.4897 219.049 60.4897C201.75 60.4897 187.727 74.5127 187.727 91.8117C187.727 109.111 201.75 123.134 219.049 123.134C236.348 123.134 250.371 109.111 250.371 91.8117Z" fill="#5AE888"/>
<path fill-rule="evenodd" clip-rule="evenodd" d="M346.079 91.8125L326.593 229.794C325.239 239.363 317.051 246.476 307.388 246.476H110.938L76.906 91.8125H133.416V104.255H152.374C154.131 113.728 157.856 122.509 163.109 130.158L149.7 143.566L167.294 161.163L180.703 147.755C188.354 153.009 197.133 156.734 206.606 158.49V177.445H231.489V158.49C240.962 156.733 249.743 153.008 257.392 147.755L270.801 161.163L288.395 143.566L274.988 130.158C280.242 122.509 283.967 113.728 285.721 104.255H304.679V91.8125H346.079Z" fill="#FFDC65"/>
<path fill-rule="evenodd" clip-rule="evenodd" d="M326.523 311.157H117.668C112.105 311.157 106.645 309.249 102.294 305.783C97.9429 302.317 94.8589 297.424 93.6129 292.002C93.6079 291.985 93.6059 291.968 93.6009 291.949L45.6079 73.8299H17.3839C8.17293 73.8299 0.679932 66.3369 0.679932 57.1259C0.679932 47.9149 8.17293 40.4219 17.3839 40.4219H51.6579C57.2209 40.4219 62.6809 42.3299 67.0319 45.7959C71.3829 49.2619 74.4669 54.1549 75.7129 59.5769C75.7179 59.5939 75.7199 59.6129 75.7249 59.6299L123.718 277.749H326.523C335.734 277.749 343.224 285.242 343.224 294.453C343.225 303.664 335.732 311.157 326.523 311.157ZM104.848 289.447C106.24 295.447 111.508 299.635 117.669 299.635H326.524C329.382 299.635 331.706 297.309 331.706 294.453C331.706 291.594 329.38 289.269 326.524 289.269H119.087C116.382 289.269 114.042 287.387 113.461 284.747L64.4789 62.1349C63.0869 56.1349 57.8189 51.9469 51.6579 51.9469H17.3839C14.5259 51.9469 12.1999 54.2729 12.1999 57.1309C12.1999 59.9889 14.5259 62.3149 17.3839 62.3149H50.2399C52.9449 62.3149 55.2849 64.1969 55.8659 66.8369L104.848 289.447Z" fill="#333333"/>
<path fill-rule="evenodd" clip-rule="evenodd" d="M307.388 252.238H110.938C107.758 252.238 105.178 249.658 105.178 246.478C105.178 243.298 107.758 240.718 110.938 240.718H307.388C314.139 240.718 319.942 235.676 320.888 228.992L339.447 97.5747H304.681C301.501 97.5747 298.921 94.9947 298.921 91.8147C298.921 88.6347 301.501 86.0547 304.681 86.0547H346.078C347.746 86.0547 349.333 86.7767 350.427 88.0367C351.522 89.2967 352.016 90.9667 351.783 92.6207L332.297 230.604C331.45 236.606 328.462 242.1 323.885 246.077C319.309 250.054 313.451 252.238 307.388 252.238Z" fill="#333333"/>
<path fill-rule="evenodd" clip-rule="evenodd" d="M133.417 97.5747H76.907C73.727 97.5747 71.147 94.9947 71.147 91.8147C71.147 88.6347 73.727 86.0547 76.907 86.0547H133.417C136.597 86.0547 139.177 88.6347 139.177 91.8147C139.177 94.9947 136.597 97.5747 133.417 97.5747Z" fill="#333333"/>
<path fill-rule="evenodd" clip-rule="evenodd" d="M120.373 369.062C108.8 369.062 99.385 359.647 99.385 348.074C99.385 336.501 108.8 327.086 120.373 327.086C131.946 327.086 141.361 336.501 141.361 348.074C141.361 359.647 131.946 369.062 120.373 369.062ZM120.373 338.606C115.153 338.606 110.905 342.854 110.905 348.074C110.905 353.294 115.153 357.542 120.373 357.542C125.593 357.542 129.841 353.294 129.841 348.074C129.841 342.854 125.593 338.606 120.373 338.606Z" fill="#333333"/>
<path fill-rule="evenodd" clip-rule="evenodd" d="M318.493 369.062C306.92 369.062 297.505 359.647 297.505 348.074C297.505 336.501 306.92 327.086 318.493 327.086C330.066 327.086 339.481 336.501 339.481 348.074C339.481 359.647 330.068 369.062 318.493 369.062ZM318.493 338.606C313.273 338.606 309.025 342.854 309.025 348.074C309.025 353.294 313.273 357.542 318.493 357.542C323.713 357.542 327.961 353.294 327.961 348.074C327.961 342.854 323.715 338.606 318.493 338.606Z" fill="#333333"/>
<path fill-rule="evenodd" clip-rule="evenodd" d="M231.491 183.207H206.605C203.425 183.207 200.845 180.627 200.845 177.447V163.122C194.029 161.394 187.554 158.708 181.501 155.104L171.366 165.239C169.117 167.488 165.469 167.488 163.22 165.239L145.623 147.642C143.374 145.393 143.374 141.745 145.623 139.496L155.758 129.361C152.153 123.308 149.468 116.833 147.74 110.017H133.414C130.234 110.017 127.654 107.437 127.654 104.257V79.3729C127.654 76.1929 130.234 73.6129 133.414 73.6129H147.74C149.468 66.7969 152.154 60.3219 155.758 54.2689L145.623 44.1339C144.543 43.0539 143.936 41.5879 143.936 40.0609C143.936 38.5339 144.543 37.0679 145.623 35.9879L163.22 18.3909C165.469 16.1419 169.117 16.1419 171.366 18.3909L181.501 28.5259C187.554 24.9209 194.029 22.2359 200.845 20.5079V6.18188C200.845 3.00188 203.425 0.421875 206.605 0.421875H231.491C234.671 0.421875 237.251 3.00188 237.251 6.18188V20.5079C244.067 22.2359 250.542 24.9209 256.595 28.5259L266.73 18.3909C268.979 16.1419 272.627 16.1419 274.876 18.3909L292.473 35.9879C293.553 37.0679 294.16 38.5339 294.16 40.0609C294.16 41.5869 293.553 43.0539 292.473 44.1339L282.338 54.2689C285.943 60.3219 288.628 66.7969 290.356 73.6129H304.682C307.862 73.6129 310.442 76.1929 310.442 79.3729V104.259C310.442 107.439 307.862 110.019 304.682 110.019H290.356C288.628 116.835 285.943 123.31 282.338 129.363L292.473 139.498C293.553 140.578 294.16 142.044 294.16 143.571C294.16 145.098 293.553 146.564 292.473 147.644L274.876 165.241C272.627 167.49 268.979 167.49 266.73 165.241L256.595 155.106C250.542 158.711 244.067 161.396 237.251 163.124V177.45C237.251 180.629 234.673 183.207 231.491 183.207ZM212.367 171.687H225.733V158.49C225.733 155.713 227.713 153.332 230.442 152.826C238.981 151.242 246.952 147.94 254.132 143.005C256.419 141.433 259.503 141.719 261.466 143.679L270.802 153.015L280.253 143.564L270.917 134.228C268.954 132.265 268.67 129.183 270.243 126.894C275.175 119.711 278.48 111.74 280.064 103.201C280.57 100.472 282.951 98.4919 285.728 98.4919H298.925V85.1259H285.727C282.95 85.1259 280.569 83.1459 280.063 80.4169C278.479 71.8779 275.177 63.9069 270.242 56.7239C268.67 54.4369 268.956 51.3529 270.916 49.3899L280.252 40.0539L270.801 30.6029L261.465 39.9389C259.502 41.9019 256.42 42.1849 254.131 40.6129C246.948 35.6809 238.978 32.3759 230.441 30.7919C227.712 30.2859 225.732 27.9049 225.732 25.1279V11.9429H212.366V25.1409C212.366 27.9179 210.386 30.2989 207.657 30.8049C199.118 32.3889 191.147 35.6909 183.967 40.6259C181.68 42.1979 178.596 41.9119 176.633 39.9519L167.297 30.6159L157.846 40.0669L167.182 49.4029C169.145 51.3659 169.429 54.4479 167.856 56.7369C162.924 63.9199 159.619 71.8899 158.035 80.4299C157.529 83.1589 155.148 85.1389 152.371 85.1389H139.173V98.5049H152.371C155.148 98.5049 157.529 100.485 158.035 103.214C159.619 111.753 162.921 119.724 167.856 126.907C169.428 129.194 169.142 132.278 167.182 134.241L157.846 143.577L167.297 153.028L176.633 143.692C178.596 141.729 181.678 141.446 183.967 143.018C191.15 147.95 199.121 151.255 207.657 152.839C210.386 153.345 212.366 155.726 212.366 158.503V171.687H212.367Z" fill="#333333"/>
<path fill-rule="evenodd" clip-rule="evenodd" d="M219.049 128.898C198.601 128.898 181.967 112.264 181.967 91.8164C181.967 71.3684 198.601 54.7344 219.049 54.7344C239.497 54.7344 256.131 71.3684 256.131 91.8164C256.131 112.264 239.497 128.898 219.049 128.898ZM219.049 66.2534C204.954 66.2534 193.487 77.7204 193.487 91.8154C193.487 105.91 204.954 117.377 219.049 117.377C233.144 117.377 244.611 105.91 244.611 91.8154C244.611 77.7204 233.144 66.2534 219.049 66.2534Z" fill="#333333"/>
</svg>
