<svg width="305" height="369" viewBox="0 0 305 369" fill="none" xmlns="http://www.w3.org/2000/svg">
<path fill-rule="evenodd" clip-rule="evenodd" d="M165.854 61.0518V73.4308H57.6941V61.0518V42.2238V28.6378H81.0561V16.0998C81.0561 10.3878 85.6861 5.75781 91.3981 5.75781H132.155C137.867 5.75781 142.497 10.3878 142.497 16.0998V28.6378H165.856V42.2248V61.0518H165.854Z" fill="#AAB5C4"/>
<path fill-rule="evenodd" clip-rule="evenodd" d="M162.943 205.715V226.674V272.075H148.284H148.281H117.542V277.197H25.6711V61.0547H57.6941V73.4347H165.854V61.0547H198.115L198.118 181.271H193.685H162.943V205.715Z" fill="#F7F7F7"/>
<path fill-rule="evenodd" clip-rule="evenodd" d="M117.542 279.596V296.029H10.4351C7.85308 296.029 5.75708 293.936 5.75708 291.354V46.9016C5.75708 44.3196 7.85208 42.2266 10.4351 42.2266H57.6911H57.6931V61.0546H25.6701V277.196H117.542V279.596Z" fill="#78BFFF"/>
<path fill-rule="evenodd" clip-rule="evenodd" d="M218.031 46.9016V181.271H217.791H200.278H198.118L198.116 61.0546H165.855V42.2266H213.356C215.935 42.2256 218.031 44.3186 218.031 46.9016Z" fill="#78BFFF"/>
<path fill-rule="evenodd" clip-rule="evenodd" d="M177.605 272.07V301.393L162.943 290.589L148.281 301.393V272.07H148.284H162.943H177.605Z" fill="#FF6862"/>
<path fill-rule="evenodd" clip-rule="evenodd" d="M268.409 272.07V301.393L253.75 290.589L239.088 301.393V272.07H253.75H268.409Z" fill="#FF6862"/>
<path fill-rule="evenodd" clip-rule="evenodd" d="M223.008 181.266V210.59L208.346 199.785L193.685 210.59V181.266H198.118H200.278H217.79H218.031H223.008Z" fill="#FF6862"/>
<path fill-rule="evenodd" clip-rule="evenodd" d="M299.153 272.07V362.877H208.346V272.07H239.088V301.393L253.75 290.589L268.409 301.393V272.07H299.153Z" fill="#FFBD8C"/>
<path fill-rule="evenodd" clip-rule="evenodd" d="M208.346 272.07V362.877H117.542V296.025V279.592V277.192V272.07H148.281V301.393L162.943 290.589L177.605 301.393V272.07H208.346Z" fill="#FFBD8C"/>
<path fill-rule="evenodd" clip-rule="evenodd" d="M253.75 181.266V272.07H239.088H208.346H177.605H162.943V226.669V205.71V181.266H193.685V210.59L208.346 199.785L223.008 210.59V181.266H253.75Z" fill="#FFBD8C"/>
<path fill-rule="evenodd" clip-rule="evenodd" d="M117.542 301.791H10.435C4.68 301.791 0 297.109 0 291.356V46.9037C0 41.1487 4.682 36.4688 10.435 36.4688H57.693C60.873 36.4688 63.453 39.0488 63.453 42.2288C63.453 45.4088 60.876 47.9887 57.693 47.9887H11.517V290.271H117.539C120.719 290.271 123.299 292.851 123.299 296.031C123.299 299.211 120.722 301.791 117.542 301.791Z" fill="#333333"/>
<path fill-rule="evenodd" clip-rule="evenodd" d="M218.031 187.033C214.851 187.033 212.271 184.453 212.271 181.273V47.9887H165.855C162.675 47.9887 160.095 45.4087 160.095 42.2287C160.095 39.0487 162.675 36.4688 165.855 36.4688H213.356C219.111 36.4688 223.791 41.1507 223.791 46.9037V181.273C223.79 184.453 221.213 187.033 218.031 187.033Z" fill="#333333"/>
<path fill-rule="evenodd" clip-rule="evenodd" d="M165.854 79.194H57.6941C54.5141 79.194 51.9341 76.614 51.9341 73.434V28.64C51.9341 25.46 54.5141 22.88 57.6941 22.88H75.2961V16.102C75.2961 7.224 82.5201 0 91.3981 0H132.157C141.035 0 148.259 7.224 148.259 16.102V22.88H165.858C169.038 22.88 171.618 25.46 171.618 28.64V73.434C171.614 76.613 169.037 79.194 165.854 79.194ZM63.4541 67.674H160.097V34.4H142.495C139.315 34.4 136.735 31.82 136.735 28.64V16.102C136.735 13.575 134.681 11.52 132.153 11.52H91.3961C88.8691 11.52 86.8141 13.574 86.8141 16.102V28.64C86.8141 31.82 84.2341 34.4 81.0541 34.4H63.4521V67.674H63.4541Z" fill="#333333"/>
<path fill-rule="evenodd" clip-rule="evenodd" d="M117.542 282.959H25.6699C22.4899 282.959 19.9099 280.379 19.9099 277.199V61.0569C19.9099 57.8769 22.4899 55.2969 25.6699 55.2969H57.6929C60.8729 55.2969 63.4529 57.8769 63.4529 61.0569C63.4529 64.2369 60.8729 66.8169 57.6929 66.8169H31.4299V271.438H117.542C120.722 271.438 123.302 274.018 123.302 277.198C123.302 280.378 120.722 282.959 117.542 282.959Z" fill="#333333"/>
<path fill-rule="evenodd" clip-rule="evenodd" d="M198.118 187.033C194.938 187.033 192.358 184.455 192.358 181.273L192.356 66.8169H165.855C162.675 66.8169 160.095 64.2369 160.095 61.0569C160.095 57.8769 162.675 55.2969 165.855 55.2969H198.116C201.296 55.2969 203.876 57.8739 203.876 61.0569L203.878 181.273C203.878 184.453 201.3 187.033 198.118 187.033Z" fill="#333333"/>
<path fill-rule="evenodd" clip-rule="evenodd" d="M208.346 368.638H117.542C114.362 368.638 111.782 366.058 111.782 362.878V272.072C111.782 268.892 114.362 266.312 117.542 266.312H208.346C211.526 266.312 214.106 268.892 214.106 272.072C214.106 275.252 211.526 277.832 208.346 277.832H123.302V357.118H208.346C211.526 357.118 214.106 359.698 214.106 362.878C214.106 366.058 211.529 368.638 208.346 368.638Z" fill="#333333"/>
<path fill-rule="evenodd" clip-rule="evenodd" d="M177.605 307.155C176.398 307.155 175.195 306.777 174.187 306.033L162.943 297.745L151.699 306.033C149.95 307.322 147.624 307.515 145.685 306.536C143.746 305.557 142.522 303.568 142.522 301.396V272.073C142.522 268.893 145.102 266.312 148.282 266.312C151.462 266.312 154.042 268.893 154.042 272.073V289.995L159.526 285.953C161.559 284.456 164.329 284.456 166.361 285.953L171.845 289.995V272.073C171.845 268.893 174.425 266.312 177.605 266.312C180.785 266.312 183.365 268.893 183.365 272.073V301.396C183.365 303.568 182.141 305.557 180.202 306.536C179.381 306.951 178.493 307.155 177.605 307.155Z" fill="#333333"/>
<path fill-rule="evenodd" clip-rule="evenodd" d="M299.153 368.646H208.346C205.166 368.646 202.586 366.066 202.586 362.886V272.08C202.586 268.9 205.166 266.32 208.346 266.32H299.152C302.332 266.32 304.912 268.9 304.912 272.08V362.886C304.913 366.065 302.333 368.646 299.153 368.646ZM214.106 357.126H293.392V277.84H214.106V357.126Z" fill="#333333"/>
<path fill-rule="evenodd" clip-rule="evenodd" d="M239.088 307.158C238.202 307.158 237.312 306.954 236.491 306.539C234.552 305.56 233.328 303.57 233.328 301.398V272.076C233.328 268.896 235.908 266.315 239.088 266.315C242.268 266.315 244.848 268.896 244.848 272.076V289.998L250.332 285.956C252.365 284.459 255.134 284.459 257.167 285.956L262.649 289.995V272.072C262.649 268.892 265.229 266.312 268.409 266.312C271.589 266.312 274.169 268.892 274.169 272.072V301.395C274.169 303.567 272.945 305.556 271.006 306.536C269.067 307.515 266.741 307.322 264.992 306.033L253.75 297.745L242.506 306.033C241.495 306.78 240.295 307.158 239.088 307.158Z" fill="#333333"/>
<path fill-rule="evenodd" clip-rule="evenodd" d="M253.75 277.832C250.57 277.832 247.99 275.252 247.99 272.072V187.028H168.704V272.072C168.704 275.252 166.124 277.832 162.944 277.832C159.764 277.832 157.184 275.252 157.184 272.072V181.268C157.184 178.088 159.764 175.508 162.944 175.508H253.748C256.928 175.508 259.508 178.088 259.508 181.268V272.072C259.51 275.255 256.929 277.832 253.75 277.832Z" fill="#333333"/>
<path fill-rule="evenodd" clip-rule="evenodd" d="M193.685 216.351C192.799 216.351 191.909 216.147 191.088 215.732C189.149 214.753 187.925 212.763 187.925 210.591V181.268C187.925 178.088 190.505 175.508 193.685 175.508C196.865 175.508 199.445 178.088 199.445 181.268V199.191L204.929 195.149C206.962 193.652 209.731 193.652 211.764 195.149L217.248 199.191V181.268C217.248 178.088 219.828 175.508 223.008 175.508C226.188 175.508 228.768 178.088 228.768 181.268V210.591C228.768 212.763 227.544 214.753 225.605 215.732C223.666 216.711 221.34 216.517 219.591 215.228L208.347 206.941L197.103 215.228C196.094 215.972 194.894 216.351 193.685 216.351Z" fill="#333333"/>
<path fill-rule="evenodd" clip-rule="evenodd" d="M169.63 130.77H110.456C107.276 130.77 104.696 128.19 104.696 125.01C104.696 121.83 107.276 119.25 110.456 119.25H169.63C172.81 119.25 175.39 121.83 175.39 125.01C175.39 128.19 172.81 130.77 169.63 130.77Z" fill="#333333"/>
<path fill-rule="evenodd" clip-rule="evenodd" d="M169.63 151.723H110.456C107.276 151.723 104.696 149.143 104.696 145.963C104.696 142.783 107.276 140.203 110.456 140.203H169.63C172.81 140.203 175.39 142.783 175.39 145.963C175.39 149.143 172.81 151.723 169.63 151.723Z" fill="#333333"/>
<path fill-rule="evenodd" clip-rule="evenodd" d="M62.9879 151.479C61.4499 151.479 59.9159 150.867 58.7859 149.66L49.7209 139.99C47.5439 137.669 47.6619 134.024 49.9829 131.849C52.3039 129.672 55.9489 129.79 58.1239 132.111L63.3419 137.677L82.0279 120.966C84.3989 118.847 88.0399 119.048 90.1619 121.42C92.2839 123.791 92.0799 127.432 89.7079 129.554L66.8289 150.014C65.7289 150.994 64.3559 151.479 62.9879 151.479Z" fill="#333333"/>
<path fill-rule="evenodd" clip-rule="evenodd" d="M162.943 211.473H110.455C107.275 211.473 104.695 208.893 104.695 205.713C104.695 202.533 107.275 199.953 110.455 199.953H162.943C166.123 199.953 168.703 202.533 168.703 205.713C168.703 208.893 166.126 211.473 162.943 211.473Z" fill="#333333"/>
<path fill-rule="evenodd" clip-rule="evenodd" d="M162.943 232.434H110.455C107.275 232.434 104.695 229.854 104.695 226.674C104.695 223.494 107.275 220.914 110.455 220.914H162.943C166.123 220.914 168.703 223.494 168.703 226.674C168.703 229.854 166.126 232.434 162.943 232.434Z" fill="#333333"/>
<path fill-rule="evenodd" clip-rule="evenodd" d="M62.9879 232.181C61.4499 232.181 59.9159 231.569 58.7859 230.362L49.7209 220.693C47.5439 218.372 47.6619 214.727 49.9829 212.552C52.3039 210.378 55.9489 210.493 58.1239 212.814L63.3419 218.38L82.0279 201.669C84.3989 199.55 88.0399 199.751 90.1619 202.122C92.2839 204.493 92.0799 208.134 89.7079 210.256L66.8289 230.716C65.7289 231.696 64.3559 232.181 62.9879 232.181Z" fill="#333333"/>
</svg>
