<svg width="300" height="370" viewBox="0 0 300 370" fill="none" xmlns="http://www.w3.org/2000/svg">
<path fill-rule="evenodd" clip-rule="evenodd" d="M294.133 228.952L266.027 245.179L191.229 200.421L196.852 197.349L216.568 186.578L294.133 228.952Z" fill="#FFBD8C"/>
<path fill-rule="evenodd" clip-rule="evenodd" d="M173.166 210.289L248.44 255.332L216.568 273.733L139.002 228.951L173.166 210.289Z" fill="#FFBD8C"/>
<path fill-rule="evenodd" clip-rule="evenodd" d="M216.568 273.735V363.301L139.002 318.519V293.585V274.849V228.953L216.568 273.735Z" fill="#FFBD8C"/>
<path fill-rule="evenodd" clip-rule="evenodd" d="M294.133 228.953V318.519L216.568 363.301V273.735L248.44 255.334H248.442L249.637 282.886L266.992 273.735L266.027 245.18L294.133 228.953Z" fill="#FFBD8C"/>
<path fill-rule="evenodd" clip-rule="evenodd" d="M266.027 245.18L266.992 273.735L249.637 282.886L248.442 255.334L266.027 245.18Z" fill="#FF6862"/>
<path fill-rule="evenodd" clip-rule="evenodd" d="M266.027 245.18L248.442 255.334H248.44L173.166 210.291L191.229 200.422L266.027 245.18Z" fill="#FF6862"/>
<path fill-rule="evenodd" clip-rule="evenodd" d="M164.908 60.9297V73.1867H57.8101V60.9277V42.2867V28.8337H80.9411V16.4187C80.9411 10.7647 85.5251 6.17969 91.1821 6.17969H131.538C137.192 6.17969 141.777 10.7637 141.777 16.4187V28.8337H164.908V42.2857V60.9297Z" fill="#7C87A1"/>
<path fill-rule="evenodd" clip-rule="evenodd" d="M139.002 274.851V293.588H11.017C8.46096 293.588 6.38696 291.515 6.38696 288.959V46.9191C6.38696 44.3611 8.46096 42.2891 11.017 42.2891H57.81V60.9301H26.104V274.943L139.002 274.851Z" fill="#85C5FF"/>
<path fill-rule="evenodd" clip-rule="evenodd" d="M216.568 46.9191V186.582L196.852 197.353L196.85 60.9321H164.908V42.2891H211.938C214.494 42.2891 216.568 44.3611 216.568 46.9191Z" fill="#85C5FF"/>
<path fill-rule="evenodd" clip-rule="evenodd" d="M196.849 60.9327L196.852 197.353L191.229 200.425L173.166 210.294L139.002 228.956V274.852L26.104 274.943V60.9297H57.81V73.1887H164.908V60.9327H196.849Z" fill="#F7F7F7"/>
<path fill-rule="evenodd" clip-rule="evenodd" d="M139.002 299.349H11.017C5.28795 299.349 0.626953 294.688 0.626953 288.96V46.9202C0.626953 41.1912 5.28795 36.5312 11.017 36.5312H57.81C60.99 36.5312 63.572 39.1113 63.572 42.2913C63.572 45.4713 60.994 48.0512 57.812 48.0512H12.147V287.83H139.001C142.181 287.83 144.761 290.41 144.761 293.59C144.762 296.769 142.185 299.349 139.002 299.349Z" fill="#333333"/>
<path fill-rule="evenodd" clip-rule="evenodd" d="M216.568 192.344C213.388 192.344 210.808 189.764 210.808 186.584V48.0512H164.906C161.726 48.0512 159.146 45.4713 159.146 42.2913C159.146 39.1113 161.726 36.5312 164.906 36.5312H211.939C217.668 36.5312 222.328 41.1922 222.328 46.9202V186.583C222.328 189.766 219.75 192.344 216.568 192.344Z" fill="#333333"/>
<path fill-rule="evenodd" clip-rule="evenodd" d="M164.908 78.9479H57.81C54.63 78.9479 52.05 76.3679 52.05 73.1879V28.8359C52.05 25.6559 54.63 23.0759 57.81 23.0759H75.181V16.4229C75.181 7.60087 82.3591 0.421875 91.1821 0.421875H131.538C140.36 0.421875 147.539 7.60087 147.539 16.4229V23.0759H164.908C168.088 23.0759 170.668 25.6559 170.668 28.8359V73.1879C170.668 76.3679 168.088 78.9479 164.908 78.9479ZM63.5701 67.4279H159.145V34.5959H141.776C138.596 34.5959 136.016 32.0159 136.016 28.8359V16.4229C136.016 13.9539 134.007 11.9419 131.535 11.9419H91.1821C88.7131 11.9419 86.701 13.9509 86.701 16.4229V28.8359C86.701 32.0159 84.121 34.5959 80.941 34.5959H63.5701V67.4279Z" fill="#333333"/>
<path fill-rule="evenodd" clip-rule="evenodd" d="M26.104 280.705C24.578 280.705 23.114 280.098 22.034 279.02C20.954 277.94 20.344 276.474 20.344 274.945V60.9319C20.344 57.7519 22.924 55.1719 26.104 55.1719H57.81C60.99 55.1719 63.57 57.7519 63.57 60.9319C63.57 64.1119 60.99 66.6919 57.81 66.6919H31.864V269.18L138.997 269.094C138.999 269.094 138.999 269.094 139.002 269.094C142.182 269.094 144.76 271.669 144.762 274.849C144.764 278.029 142.187 280.611 139.007 280.614L26.109 280.705C26.106 280.705 26.106 280.705 26.104 280.705Z" fill="#333333"/>
<path fill-rule="evenodd" clip-rule="evenodd" d="M196.852 203.113C193.672 203.113 191.092 200.533 191.092 197.353L191.09 66.6919H164.906C161.726 66.6919 159.146 64.1119 159.146 60.9319C159.146 57.7519 161.726 55.1719 164.906 55.1719H196.85C200.03 55.1719 202.61 57.7519 202.61 60.9319L202.612 197.353C202.612 200.536 200.034 203.113 196.852 203.113Z" fill="#333333"/>
<path fill-rule="evenodd" clip-rule="evenodd" d="M62.79 128.893C62.418 128.893 62.044 128.857 61.672 128.783C60.143 128.481 58.802 127.569 57.954 126.261L50.096 114.11C48.368 111.439 49.134 107.872 51.805 106.144C54.476 104.416 58.043 105.182 59.771 107.853L64.398 115.01L84.253 101.253C86.867 99.441 90.457 100.091 92.269 102.707C94.081 105.323 93.431 108.911 90.815 110.723L66.071 127.866C65.101 128.54 63.954 128.893 62.79 128.893Z" fill="#333333"/>
<path fill-rule="evenodd" clip-rule="evenodd" d="M62.79 186.088C62.418 186.088 62.044 186.052 61.672 185.978C60.143 185.676 58.802 184.766 57.954 183.456L50.096 171.305C48.368 168.634 49.134 165.067 51.805 163.339C54.476 161.611 58.043 162.377 59.771 165.048L64.398 172.205L84.253 158.448C86.867 156.636 90.457 157.286 92.269 159.902C94.081 162.518 93.431 166.106 90.815 167.918L66.071 185.061C65.101 185.736 63.954 186.088 62.79 186.088Z" fill="#333333"/>
<path fill-rule="evenodd" clip-rule="evenodd" d="M62.79 243.284C62.418 243.284 62.044 243.248 61.672 243.174C60.143 242.871 58.802 241.962 57.954 240.652L50.096 228.501C48.368 225.83 49.134 222.263 51.805 220.535C54.476 218.807 58.043 219.573 59.771 222.244L64.398 229.401L84.253 215.644C86.867 213.832 90.457 214.482 92.269 217.098C94.081 219.714 93.431 223.302 90.815 225.114L66.071 242.257C65.101 242.931 63.954 243.284 62.79 243.284Z" fill="#333333"/>
<path fill-rule="evenodd" clip-rule="evenodd" d="M164.906 116.348H114.525C111.345 116.348 108.765 113.768 108.765 110.588C108.765 107.408 111.345 104.828 114.525 104.828H164.906C168.086 104.828 170.666 107.408 170.666 110.588C170.666 113.768 168.088 116.348 164.906 116.348Z" fill="#333333"/>
<path fill-rule="evenodd" clip-rule="evenodd" d="M164.906 173.692H114.525C111.345 173.692 108.765 171.112 108.765 167.932C108.765 164.752 111.345 162.172 114.525 162.172H164.906C168.086 162.172 170.666 164.752 170.666 167.932C170.666 171.112 168.088 173.692 164.906 173.692Z" fill="#333333"/>
<path fill-rule="evenodd" clip-rule="evenodd" d="M216.568 369.059C215.575 369.059 214.578 368.802 213.688 368.286L136.122 323.505C134.339 322.475 133.242 320.575 133.242 318.518V228.955C133.242 226.848 134.392 224.911 136.24 223.9L213.806 181.526C215.527 180.585 217.608 180.585 219.328 181.526L296.894 223.9C298.742 224.91 299.892 226.847 299.892 228.955V318.518C299.892 320.575 298.795 322.478 297.012 323.505L219.447 368.286C218.557 368.802 217.561 369.059 216.568 369.059ZM144.762 315.19L216.567 356.648L288.373 315.19V232.369L216.567 193.141L144.762 232.369V315.19Z" fill="#333333"/>
<path fill-rule="evenodd" clip-rule="evenodd" d="M216.568 279.496C215.575 279.496 214.578 279.239 213.688 278.725L136.122 233.944C133.367 232.353 132.424 228.832 134.015 226.077C135.606 223.322 139.127 222.379 141.882 223.968L216.567 267.086L291.253 223.968C294.008 222.377 297.531 223.322 299.12 226.077C300.709 228.832 299.766 232.356 297.013 233.944L219.447 278.725C218.557 279.239 217.561 279.496 216.568 279.496Z" fill="#333333"/>
<path fill-rule="evenodd" clip-rule="evenodd" d="M266.022 250.937C265.016 250.937 263.996 250.673 263.07 250.119L188.269 205.361C185.54 203.726 184.65 200.191 186.284 197.46C187.918 194.731 191.453 193.841 194.185 195.475L268.986 240.233C271.715 241.867 272.605 245.402 270.971 248.134C269.891 249.936 267.983 250.937 266.022 250.937Z" fill="#333333"/>
<path fill-rule="evenodd" clip-rule="evenodd" d="M248.438 261.089C247.432 261.089 246.412 260.825 245.486 260.271L170.21 215.228C167.481 213.594 166.591 210.059 168.225 207.327C169.859 204.596 173.394 203.708 176.126 205.342L251.402 250.385C254.131 252.019 255.021 255.555 253.387 258.286C252.306 260.088 250.396 261.089 248.438 261.089Z" fill="#333333"/>
<path fill-rule="evenodd" clip-rule="evenodd" d="M249.637 288.646C248.646 288.646 247.657 288.392 246.769 287.88C245.058 286.898 243.968 285.106 243.882 283.133L242.687 255.579C242.55 252.401 245.015 249.713 248.193 249.574C251.373 249.435 254.059 251.902 254.198 255.08L254.997 273.546L261.112 270.32L260.27 245.37C260.162 242.19 262.653 239.526 265.833 239.418C269.023 239.305 271.677 241.801 271.785 244.981L272.747 273.536C272.821 275.742 271.629 277.796 269.677 278.826L252.323 287.977C251.483 288.425 250.559 288.646 249.637 288.646Z" fill="#333333"/>
<path fill-rule="evenodd" clip-rule="evenodd" d="M216.568 369.062C213.388 369.062 210.808 366.482 210.808 363.302V273.737C210.808 270.557 213.388 267.977 216.568 267.977C219.748 267.977 222.328 270.557 222.328 273.737V363.302C222.328 366.481 219.75 369.062 216.568 369.062Z" fill="#333333"/>
</svg>
