<?xml version="1.0" encoding="UTF-8"?>
<svg id="Logo-main-inline-black" xmlns="http://www.w3.org/2000/svg" version="1.1" viewBox="0 0 800 192">
  <defs>
    <style>
      .cls-1 {
        fill: #ff8e05;
      }

      .cls-1, .cls-2, .cls-3 {
        stroke-width: 0px;
      }

      .cls-2 {
        fill: #003253;
      }

      .cls-3 {
        fill: #171717;
      }
    </style>
  </defs>
  <g>
    <path class="cls-3" d="M250.262,138.721c-1.302,0-2.318-.324-3.05-.977-.732-.649-1.262-1.464-1.586-2.439l-26.108-78.324c-.164-.406-.244-.772-.244-1.098,0-.732.244-1.343.732-1.83.488-.488,1.098-.732,1.83-.732h10.735c1.139,0,2.014.305,2.623.915.61.61.995,1.201,1.159,1.77l20.618,62.829,20.496-62.829c.244-.568.672-1.159,1.281-1.77s1.482-.915,2.623-.915h10.736c.65,0,1.238.244,1.768.732.529.487.793,1.098.793,1.83,0,.325-.08.691-.242,1.098l-26.109,78.324c-.326.976-.854,1.79-1.586,2.439-.731.652-1.75.977-3.05.977h-13.42Z"/>
    <path class="cls-3" d="M306.261,64.788c-.896,0-1.607-.263-2.135-.793-.53-.527-.793-1.238-.793-2.135v-8.784c0-.812.263-1.504.793-2.073.527-.568,1.238-.854,2.135-.854h11.102c.895,0,1.626.286,2.196.854.568.569.854,1.262.854,2.073v8.784c0,.896-.285,1.607-.854,2.135-.57.53-1.302.793-2.196.793h-11.102ZM306.75,138.721c-.814,0-1.507-.284-2.074-.854-.57-.567-.854-1.26-.854-2.074v-57.584c0-.812.284-1.504.854-2.073.567-.568,1.26-.854,2.074-.854h10.126c.894,0,1.604.286,2.135.854.527.569.793,1.262.793,2.073v57.584c0,.814-.266,1.507-.793,2.074-.53.57-1.241.854-2.135.854h-10.126Z"/>
    <path class="cls-3" d="M358.598,139.941c-4.88,0-9.049-.57-12.505-1.708-3.458-1.138-6.283-2.562-8.479-4.27-2.195-1.708-3.823-3.416-4.88-5.124-1.058-1.708-1.628-3.131-1.708-4.271-.082-.894.184-1.604.793-2.135.61-.528,1.281-.793,2.014-.793h9.638c.324,0,.61.042.854.122.244.082.568.326.977.731,1.056.896,2.175,1.83,3.354,2.807,1.179.976,2.581,1.811,4.209,2.501,1.627.691,3.66,1.037,6.101,1.037,3.172,0,5.835-.63,7.991-1.892,2.153-1.26,3.232-3.069,3.232-5.429,0-1.708-.469-3.09-1.402-4.148-.937-1.056-2.665-2.013-5.186-2.866-2.521-.854-6.1-1.77-10.736-2.745-4.556-1.057-8.338-2.398-11.346-4.026-3.01-1.626-5.246-3.66-6.71-6.1-1.464-2.44-2.196-5.286-2.196-8.54,0-3.172.955-6.201,2.867-9.089,1.91-2.887,4.758-5.266,8.54-7.138,3.782-1.87,8.479-2.806,14.091-2.806,4.393,0,8.215.549,11.469,1.646,3.252,1.099,5.957,2.461,8.112,4.088,2.154,1.628,3.802,3.274,4.941,4.94,1.138,1.668,1.748,3.111,1.83,4.331.08.896-.164,1.607-.732,2.135-.569.53-1.22.793-1.952.793h-9.027c-.408,0-.774-.08-1.099-.244-.325-.161-.651-.365-.976-.609-.896-.812-1.872-1.666-2.928-2.562-1.059-.894-2.339-1.687-3.844-2.379-1.506-.689-3.477-1.037-5.917-1.037-3.092,0-5.449.671-7.075,2.014-1.628,1.342-2.44,3.03-2.44,5.062,0,1.384.385,2.583,1.159,3.6.771,1.018,2.337,1.973,4.697,2.866,2.357.896,5.936,1.83,10.735,2.807,5.448.976,9.779,2.421,12.993,4.331,3.212,1.912,5.49,4.107,6.832,6.588,1.342,2.481,2.013,5.227,2.013,8.234,0,3.66-1.078,6.954-3.232,9.883-2.156,2.928-5.328,5.227-9.517,6.893-4.189,1.666-9.375,2.501-15.555,2.501Z"/>
    <path class="cls-3" d="M400.932,138.721c-.814,0-1.507-.284-2.074-.854-.57-.567-.854-1.26-.854-2.074v-57.584c0-.812.284-1.504.854-2.073.567-.568,1.26-.854,2.074-.854h9.516c.812,0,1.504.286,2.074.854.567.569.854,1.262.854,2.073v4.148c1.708-2.276,4.005-4.209,6.894-5.795,2.886-1.586,6.322-2.419,10.309-2.501,9.272-.162,15.738,3.458,19.398,10.858,1.869-3.253,4.574-5.876,8.112-7.869,3.538-1.992,7.461-2.989,11.773-2.989,4.228,0,8.071.976,11.529,2.928,3.456,1.952,6.18,4.901,8.174,8.845,1.992,3.946,2.988,8.928,2.988,14.945v35.014c0,.814-.285,1.507-.854,2.074-.57.57-1.262.854-2.074.854h-10.004c-.813,0-1.506-.284-2.074-.854-.569-.567-.854-1.26-.854-2.074v-34.037c0-3.66-.53-6.567-1.586-8.724-1.059-2.154-2.482-3.679-4.271-4.575-1.79-.894-3.782-1.342-5.978-1.342-1.79,0-3.58.448-5.368,1.342-1.79.896-3.254,2.421-4.392,4.575-1.141,2.156-1.708,5.063-1.708,8.724v34.037c0,.814-.286,1.507-.854,2.074-.57.57-1.262.854-2.074.854h-10.004c-.896,0-1.606-.284-2.135-.854-.53-.567-.793-1.26-.793-2.074v-34.037c0-3.66-.57-6.567-1.708-8.724-1.14-2.154-2.604-3.679-4.392-4.575-1.79-.894-3.702-1.342-5.734-1.342-1.872,0-3.702.469-5.49,1.403-1.79.936-3.254,2.461-4.392,4.575-1.141,2.115-1.708,5.002-1.708,8.662v34.037c0,.814-.286,1.507-.854,2.074-.569.57-1.262.854-2.074.854h-10.247Z"/>
    <path class="cls-3" d="M525.005,139.941c-4.229,0-8.052-.835-11.468-2.501s-6.121-3.904-8.113-6.71c-1.993-2.806-2.988-5.957-2.988-9.455,0-5.692,2.297-10.227,6.893-13.603,4.594-3.374,10.675-5.632,18.239-6.771l16.714-2.439v-2.562c0-3.416-.854-6.058-2.562-7.93-1.708-1.87-4.637-2.807-8.784-2.807-2.929,0-5.308.591-7.138,1.77-1.83,1.18-3.192,2.745-4.087,4.697-.651,1.058-1.586,1.586-2.806,1.586h-9.638c-.896,0-1.567-.244-2.014-.732-.447-.488-.671-1.138-.671-1.952.08-1.3.61-2.886,1.586-4.758.977-1.87,2.521-3.679,4.637-5.429,2.113-1.748,4.838-3.233,8.174-4.453,3.334-1.22,7.359-1.83,12.078-1.83,5.124,0,9.455.631,12.992,1.891,3.538,1.263,6.363,2.949,8.479,5.063,2.114,2.116,3.66,4.596,4.636,7.441.977,2.849,1.464,5.856,1.464,9.028v38.308c0,.814-.285,1.507-.854,2.074-.57.57-1.262.854-2.074.854h-9.882c-.896,0-1.607-.284-2.135-.854-.53-.567-.793-1.26-.793-2.074v-4.758c-1.059,1.546-2.482,2.989-4.271,4.331-1.79,1.342-3.965,2.44-6.526,3.294-2.562.854-5.594,1.281-9.09,1.281ZM529.153,128.351c2.846,0,5.429-.61,7.747-1.83,2.317-1.22,4.147-3.111,5.49-5.673,1.342-2.562,2.013-5.795,2.013-9.699v-2.562l-12.2,1.951c-4.8.732-8.378,1.912-10.736,3.538-2.359,1.628-3.537,3.62-3.537,5.979,0,1.79.549,3.314,1.646,4.575,1.098,1.262,2.501,2.195,4.209,2.806s3.496.915,5.368.915Z"/>
    <path class="cls-3" d="M605.646,138.721c-.814,0-1.506-.284-2.074-.854-.57-.567-.854-1.26-.854-2.074V56.37c0-.894.284-1.626.854-2.195.568-.568,1.26-.854,2.074-.854h9.394c1.138,0,1.971.265,2.501.793.528.53.873.915,1.037,1.159l35.136,54.656v-53.559c0-.894.264-1.626.793-2.195.528-.568,1.239-.854,2.136-.854h10.248c.894,0,1.626.286,2.195.854.568.569.854,1.302.854,2.195v79.301c0,.896-.286,1.628-.854,2.195-.569.57-1.262.854-2.074.854h-9.516c-1.14,0-1.952-.284-2.44-.854-.487-.567-.854-.934-1.098-1.098l-35.014-53.437v52.46c0,.814-.286,1.507-.854,2.074-.569.57-1.302.854-2.195.854h-10.248Z"/>
    <path class="cls-3" d="M713.37,139.941c-9.028,0-16.186-2.602-21.472-7.808-5.288-5.204-8.134-12.606-8.54-22.204-.082-.812-.122-1.85-.122-3.111s.04-2.257.122-2.989c.324-6.1,1.727-11.386,4.209-15.859,2.479-4.473,5.917-7.909,10.309-10.31,4.393-2.397,9.557-3.599,15.494-3.599,6.588,0,12.118,1.363,16.592,4.087,4.473,2.726,7.849,6.508,10.126,11.346,2.276,4.84,3.416,10.432,3.416,16.775v2.562c0,.814-.285,1.506-.854,2.074s-1.302.854-2.196.854h-40.504v.976c.08,2.848.629,5.471,1.647,7.869,1.016,2.4,2.52,4.331,4.514,5.795,1.992,1.464,4.371,2.196,7.137,2.196,2.276,0,4.188-.346,5.734-1.037,1.544-.69,2.806-1.483,3.782-2.379.976-.895,1.666-1.626,2.073-2.196.732-.976,1.321-1.565,1.77-1.769.446-.202,1.117-.306,2.013-.306h10.492c.812,0,1.483.244,2.013.732.528.488.751,1.098.671,1.83-.082,1.302-.753,2.888-2.013,4.758-1.262,1.872-3.071,3.702-5.429,5.49-2.36,1.79-5.308,3.274-8.846,4.453-3.537,1.178-7.585,1.769-12.139,1.769ZM699.95,101.511h26.962v-.366c0-3.172-.53-5.937-1.586-8.296-1.058-2.358-2.604-4.229-4.636-5.612-2.034-1.382-4.475-2.074-7.32-2.074s-5.288.692-7.32,2.074c-2.033,1.384-3.559,3.254-4.574,5.612-1.019,2.359-1.525,5.124-1.525,8.296v.366Z"/>
    <path class="cls-3" d="M783.397,138.721c-4.88,0-8.987-.854-12.321-2.562-3.336-1.708-5.816-4.249-7.442-7.625-1.628-3.374-2.44-7.583-2.44-12.627v-27.693h-9.638c-.813,0-1.506-.284-2.074-.854-.569-.568-.854-1.26-.854-2.074v-7.076c0-.812.284-1.504.854-2.073s1.261-.854,2.074-.854h9.638v-20.252c0-.812.264-1.504.793-2.074.528-.567,1.239-.854,2.136-.854h9.882c.812,0,1.504.286,2.074.854.567.57.854,1.263.854,2.074v20.252h15.25c.812,0,1.504.286,2.074.854.568.569.854,1.262.854,2.073v7.076c0,.814-.285,1.506-.854,2.074s-1.262.854-2.074.854h-15.25v26.474c0,3.336.589,5.938,1.77,7.808,1.178,1.872,3.232,2.807,6.16,2.807h8.418c.812,0,1.505.285,2.074.854.568.57.854,1.262.854,2.074v7.563c0,.814-.286,1.507-.854,2.074-.569.57-1.262.854-2.074.854h-9.882Z"/>
  </g>
  <g>
    <path class="cls-1" d="M158.859,63.861c-.01.29-.03.57-.06.85-.48,4.63-3.21,8.96-7.45,11.38,0,0-22.739,13.3-42.899,24.879-.86.43-1.72,1.08-2.57,1.51-8.11-4.68-20.589-11.78-27.819-15.97-5.15-3.25-8.44-8.93-8.44-15.21V21.312c0-.16,0-.31.02-.47,0-.14.01-.27.03-.41.01-.15.03-.31.06-.46.02-.16.05-.31.08-.46.02-.15.06-.29.1-.44.65-2.49,2.32-4.46,4.44-5.59.98-.51,2.05-.84,3.16-.97.86-.09,1.75-.06,2.63.11.94.19,1.87.53,2.78,1.05l68.428,39.469c.8.5,1.54,1,2.23,1.52,3.18,2.4,5.11,5.15,5.28,9.2Z"/>
    <path class="cls-2" d="M89.239,116.121v54.485c0,6.864-7.294,11.161-13.299,7.724L7.512,138.862C3.011,136.069.218,133.072.003,128.141c.215-4.941,3.008-9.657,7.509-12.235,0,0,22.741-13.299,42.904-24.879.859-.43,1.719-1.074,2.568-1.504,9.657,5.575,25.534,14.588,31.324,18.025,2.997,1.708,4.931,4.931,4.931,8.573Z"/>
    <path class="cls-2" d="M.03,128.489c.3-5.01,3.04-9.54,7.48-12.16,0,0,22.739-13.09,42.909-24.669,1.05-.61,2.09-1.22,3.12-1.82,14.56-8.45,26.909-15.56,26.909-15.56,5.36-3.22,8.8-9.01,8.8-15.44V8.852c0-3.21-1.72-6.22-4.51-7.72-2.57-1.51-6.01-1.51-8.8,0l-16.51,9.44L7.51,40.611c-4.71,2.78-7.51,7.71-7.51,13.08v74.448l.03.35Z"/>
    <path class="cls-1" d="M158.829,63.471c-.28,5.03-3.02,9.57-7.48,12.2,0,0-22.739,13.09-42.899,24.669-1.05.61-2.09,1.22-3.12,1.82-14.57,8.45-26.919,15.56-26.919,15.56-7.52,4.54-8.8,5.39-8.8,15.44v49.989c0,3.21,1.72,6.22,4.51,7.72,2.57,1.51,6.01,1.51,8.8,0l16.51-9.44,51.919-30.039c4.72-2.78,7.51-7.71,7.51-13.08V63.861l-.03-.39Z"/>
  </g>
</svg>