<svg id="Capa_1" enable-background="new 0 0 512 512" height="512" viewBox="0 0 512 512" width="612" xmlns="http://www.w3.org/2000/svg"><g>
<path d="m472.217 35.419h-432.434c-21.936 0-39.783 17.847-39.783 39.783v361.596c0 21.936 17.847 39.783 39.783 39.783h432.435c21.936 0 39.783-17.847 39.783-39.783v-361.596c-.001-21.936-17.848-39.783-39.784-39.783zm-452.217 39.783c0-10.908 8.875-19.783 19.783-19.783h432.435c10.908 0 19.783 8.875 19.783 19.783v39.135h-472.001zm343.992 59.135h44.208v51.754l-18.17-7.775c-1.256-.538-2.595-.806-3.934-.806s-2.678.269-3.934.806l-18.169 7.775v-51.754zm-223.468 322.244v-91.976c0-4.186-2.606-7.928-6.532-9.379-38.568-14.26-64.48-51.479-64.48-92.617 0-33.771 17.237-64.817 44.98-82.831v76.152c0 3.862 2.224 7.379 5.714 9.035l43.73 20.747c2.712 1.287 5.86 1.287 8.572 0l43.73-20.747c3.49-1.655 5.714-5.172 5.714-9.035v-76.152c27.743 18.014 44.98 49.06 44.98 82.831 0 41.137-25.913 78.357-64.48 92.617-3.926 1.451-6.532 5.194-6.532 9.379v91.976zm351.476-19.783c0 10.908-8.875 19.783-19.783 19.783h-256.297v-85.236c42.75-18.79 71.013-61.628 71.013-108.735 0-47.078-27.851-89.75-70.954-108.71-3.09-1.36-6.662-1.068-9.492.779-2.829 1.846-4.535 4.996-4.535 8.375v86.554l-33.73 16.002-33.73-16.002v-86.554c0-3.378-1.706-6.528-4.535-8.375-2.829-1.846-6.399-2.139-9.492-.779-43.103 18.96-70.954 61.631-70.954 108.71 0 47.107 28.263 89.945 71.013 108.735v85.236h-80.741c-10.908 0-19.783-8.875-19.783-19.783v-302.46h323.992v66.91c0 3.36 1.688 6.496 4.493 8.347s6.352 2.169 9.441.847l28.169-12.054 28.17 12.054c1.262.54 2.601.806 3.934.806 1.93 0 3.849-.559 5.508-1.653 2.805-1.851 4.493-4.986 4.493-8.347v-66.91h63.8z" fill="#FFFFFF"/>
<path d="m354.68 86.83c.831-4.078-1.094-8.406-4.673-10.527-3.687-2.185-8.503-1.775-11.731 1.061-3.095 2.719-4.205 7.182-2.756 11.034 1.487 3.953 5.437 6.613 9.666 6.477 4.602-.147 8.58-3.542 9.494-8.045z" fill="#FFFFFF"/>
<path d="m382.16 88.7c1.576 3.849 5.56 6.383 9.719 6.166 4.117-.215 7.767-3.005 9.031-6.93 1.283-3.984-.122-8.439-3.434-10.989-3.348-2.578-8.121-2.718-11.636-.386-3.921 2.599-5.486 7.804-3.68 12.139z" fill="#FFFFFF"/>
<path d="m428.68 88.7c1.591 3.883 5.632 6.422 9.825 6.16 4.127-.259 7.743-3.091 8.966-7.04 1.224-3.952-.199-8.351-3.469-10.873-3.346-2.581-8.127-2.716-11.642-.386-3.918 2.597-5.485 7.807-3.68 12.139z" fill="#FFFFFF"/>
<path d="m452.488 391.127h-100.064v-.212c0-5.523-4.477-10-10-10s-10 4.477-10 10v.212h-12.894c-5.523 0-10 4.477-10 10s4.477 10 10 10h12.894v.213c0 5.523 4.477 10 10 10s10-4.477 10-10v-.213h100.064c5.523 0 10-4.477 10-10s-4.477-10-10-10z" fill="#FFFFFF"/>
<path d="m396.095 285.459v-.299c0-5.523-4.477-10-10-10s-10 4.477-10 10v.299h-56.564c-5.523 0-10 4.477-10 10s4.477 10 10 10h56.564v.127c0 5.523 4.477 10 10 10s10-4.477 10-10v-.127h56.393c5.523 0 10-4.477 10-10s-4.477-10-10-10z" fill="#FFFFFF"/>
<path d="m452.488 340.889h-12.894v-.213c0-5.523-4.477-10-10-10s-10 4.477-10 10v.213h-100.063c-5.523 0-10 4.477-10 10s4.477 10 10 10h100.064v.213c0 5.523 4.477 10 10 10s10-4.477 10-10v-.213h12.894c5.523 0 10-4.477 10-10s-4.478-10-10.001-10z" fill="#FFFFFF"/></g></svg>