<svg id="Outline_Expand" data-name="Outline Expand" xmlns="http://www.w3.org/2000/svg" viewBox="0 0 64 64"><title>Training</title>
<path d="M48.08,42.5a4.43,4.43,0,0,0,2.73-2.07l2.81-4.86a4.46,4.46,0,0,0-1.72-6.13,2.59,2.59,0,0,1-1.23-2.38c0-.23,0-.48,0-.73s0-.47,0-.76a2.53,2.53,0,0,1,1.23-2.33l.11-.08a4.4,4.4,0,0,0,2-2.66,4.46,4.46,0,0,0-.43-3.41l-2.81-4.85a4.48,4.48,0,0,0-6.08-1.66l-.12.07a2.4,2.4,0,0,1-2.47,0,17.16,17.16,0,0,0-1.59-.92,2.45,2.45,0,0,1-1.29-2.26A4.46,4.46,0,0,0,34.81,3H29.19a4.48,4.48,0,0,0-4.45,4.56,2.41,2.41,0,0,1-1.28,2.16,15.41,15.41,0,0,0-1.58.91,2.43,2.43,0,0,1-2.52,0l-.07,0a4.49,4.49,0,0,0-6.1,1.65l-2.81,4.85A4.46,4.46,0,0,0,10,20.5,4.37,4.37,0,0,0,12,23.18l.08.06a2.55,2.55,0,0,1,1.23,2.39c0,.23,0,.47,0,.7s0,.5,0,.76A2.56,2.56,0,0,1,12,29.47a4.47,4.47,0,0,0-1.65,6.1l2.82,4.86a4.39,4.39,0,0,0,2.72,2.07A12.69,12.69,0,0,0,9.79,53.35v4.53A4.13,4.13,0,0,0,13.91,62H50.09a4.13,4.13,0,0,0,4.12-4.12V53.35A12.69,12.69,0,0,0,48.08,42.5ZM14.92,39.43l-2.8-4.86a2.43,2.43,0,0,1-.25-1.86,2.56,2.56,0,0,1,1.23-1.55A4.54,4.54,0,0,0,15.33,27c0-.21,0-.43,0-.65s0-.41,0-.67a4.51,4.51,0,0,0-2.22-4.15L13,21.45a2.46,2.46,0,0,1-.9-3.36l2.8-4.85a2.49,2.49,0,0,1,3.39-.91l.06,0a4.41,4.41,0,0,0,4.59,0,14.33,14.33,0,0,1,1.41-.82,4.46,4.46,0,0,0,2.37-4A2.46,2.46,0,0,1,29.19,5h5.62a2.48,2.48,0,0,1,2.45,2.56,4.41,4.41,0,0,0,2.38,3.94,16.28,16.28,0,0,1,1.42.83,4.36,4.36,0,0,0,4.54.05l.11-.05a2.47,2.47,0,0,1,3.37.91l2.8,4.85a2.46,2.46,0,0,1-.9,3.36l-.12.08a4.54,4.54,0,0,0-2.19,4.18c0,.21,0,.41,0,.62s0,.44,0,.67A4.58,4.58,0,0,0,51,31.21a2.46,2.46,0,0,1,1.16,1.5,2.43,2.43,0,0,1-.25,1.86l-2.8,4.86a2.48,2.48,0,0,1-3.38.89l-.08,0A4.51,4.51,0,0,0,42,39.92l-1.65-.87a2,2,0,0,0-2.27.3l-.2.14a1,1,0,0,1-.22-.54l-.23-1.9a12.78,12.78,0,0,0,6.75-11.72A15.41,15.41,0,0,0,44,23.39a1,1,0,0,0,0-.17s0,0,0,0c-.9-6.31-5.73-10.85-12-10.85-6.92,0-12.13,5.58-12.13,13A12.77,12.77,0,0,0,26.6,37L26.37,39a1,1,0,0,1-.21.51L26,39.35a2,2,0,0,0-2.27-.3l-1.65.87a4.48,4.48,0,0,0-3.66.35l-.1,0A2.48,2.48,0,0,1,14.92,39.43Zm26.29,2.38-4.13,7.43L33,45.09l5.31-3.52,0,0,.85-.57a.66.66,0,0,0,.15-.14Zm-12.75-18L29,23.5a4.26,4.26,0,0,1,1.45-.61,4.17,4.17,0,0,1,2.05.62l.41.19a15.14,15.14,0,0,0,9.25,1.05c0,.19,0,.38,0,.58,0,6.37-4.25,11-10.12,11s-10.13-4.61-10.13-11c0-.18,0-.35,0-.52A10.23,10.23,0,0,0,28.46,23.78Zm-6.34-1a10,10,0,0,1,19.76-.07,13.06,13.06,0,0,1-8.18-.86l-.39-.19a5.85,5.85,0,0,0-3.12-.8,5.81,5.81,0,0,0-2.23.86c-.14.09-.29.17-.44.25A8.18,8.18,0,0,1,22.12,22.82ZM31,45.08l-4,4.21-4.23-7.47,0,0,1.81-1a1.09,1.09,0,0,0,.17.13ZM31,60H20.08l1.71-8a1,1,0,0,0-2-.41L18,60H13.91a2.12,2.12,0,0,1-2.12-2.12V53.35A10.67,10.67,0,0,1,21,42.78h0l4.23,7.52a1.93,1.93,0,0,0,1.47.91h.2a1.94,1.94,0,0,0,1.42-.6L31,47.91ZM27.82,40.59a3,3,0,0,0,.54-1.39l.16-1.4a12.07,12.07,0,0,0,3.49.51,12.19,12.19,0,0,0,3.45-.5l.17,1.36a3,3,0,0,0,.53,1.43L32,43.36ZM52.21,57.88A2.12,2.12,0,0,1,50.09,60H45.91l-1.8-8.44a1,1,0,0,0-2,.41l1.71,8H33V47.92l2.63,2.71a1.94,1.94,0,0,0,1.42.6h.2a2,2,0,0,0,1.5-.95l4.17-7.44,0,0a10.68,10.68,0,0,1,9.25,10.57Z" fill="#FFFFFF"/></svg>