<svg id="Capa_1" enable-background="new 0 0 512 512" height="512" viewBox="0 0 512 512" width="512" xmlns="http://www.w3.org/2000/svg"><g>
<path d="m331 421v-120h75c57.897 0 106-47.103 106-105 0-53.13-40.665-97.17-91.938-104.062-6.892-51.273-50.932-90.938-104.062-90.938-21.444 0-42.335 6.759-60 19.236-17.664-12.477-38.555-19.236-60-19.236-53.13 0-97.17 39.665-104.062 90.938-51.273 6.892-91.938 50.932-91.938 104.062 0 57.897 48.103 105 106 105h75v120h30v30h-62.58c-6.192-17.459-22.865-30-42.42-30-24.813 0-45 20.187-45 45s20.187 45 45 45c19.555 0 36.228-12.541 42.42-30h92.58v-60h30v60h92.58c6.192 17.459 22.865 30 42.42 30 24.813 0 45-20.187 45-45s-20.187-45-45-45c-19.555 0-36.228 12.541-42.42 30h-62.58v-30zm-225 60c-8.271 0-15-6.729-15-15s6.729-15 15-15 15 6.729 15 15-6.729 15-15 15zm300-30c8.271 0 15 6.729 15 15s-6.729 15-15 15-15-6.729-15-15 6.729-15 15-15zm-300-300c-24.813 0-45 20.187-45 45s20.187 45 45 45c19.555 0 36.228-12.541 42.42-30h32.58v60h-75c-41.355 0-76-33.645-76-75s34.645-75 76-75h15v-15c0-41.355 33.645-75 75-75 18.235 0 35.977 6.942 49.954 19.548l10.046 9.059 10.045-9.059c13.979-12.606 31.72-19.548 49.955-19.548 41.355 0 75 33.645 75 75v15h15c41.355 0 76 33.645 76 75s-34.645 75-76 75h-75c0-11.5 0-37.456 0-60h32.58c6.192 17.459 22.865 30 42.42 30 24.813 0 45-20.187 45-45s-20.187-45-45-45c-19.555 0-36.228 12.541-42.42 30h-62.58v90h-30v-98.787l25.611-25.611c5.875 2.817 12.45 4.398 19.389 4.398 24.813 0 45-20.187 45-45s-20.187-45-45-45-45 20.187-45 45c0 6.939 1.581 13.514 4.398 19.389l-19.398 19.398-19.398-19.398c2.817-5.875 4.398-12.45 4.398-19.389 0-24.813-20.187-45-45-45s-45 20.187-45 45 20.187 45 45 45c6.939 0 13.514-1.581 19.389-4.398l25.611 25.611v98.787h-30v-90h-62.58c-6.192-17.459-22.865-30-42.42-30zm15 45c0 8.271-6.729 15-15 15s-15-6.729-15-15 6.729-15 15-15 15 6.729 15 15zm270 0c0-8.271 6.729-15 15-15s15 6.729 15 15-6.729 15-15 15-15-6.729-15-15zm-90-90c0-8.271 6.729-15 15-15s15 6.729 15 15-6.729 15-15 15-15-6.729-15-15zm-90 0c0 8.271-6.729 15-15 15s-15-6.729-15-15 6.729-15 15-15 15 6.729 15 15zm0 285v-90h90v90z" fill="#FFFFFF"/><path d="m241 331h30v30h-30z" fill="#FFFFFF"/></g></svg>